<svg width="303" height="302" viewBox="0 0 303 302" fill="none" xmlns="http://www.w3.org/2000/svg">
<g clip-path="url(#clip0_111_1341)">
<path d="M254.132 48.383C257.756 50.623 261.931 51.8095 266.191 51.8095C270.451 51.8095 274.627 50.623 278.25 48.383C282.494 45.7595 285.766 41.8235 287.571 37.1721C289.376 32.5207 289.615 27.4076 288.251 22.6083C286.887 17.809 283.996 13.5854 280.015 10.578C276.034 7.57059 271.18 5.9435 266.191 5.9435C261.202 5.9435 256.349 7.57059 252.368 10.578C248.387 13.5854 245.495 17.809 244.131 22.6083C242.768 27.4076 243.006 32.5207 244.811 37.1721C246.616 41.8235 249.888 45.7595 254.132 48.383Z" fill="#E5E5E5"/>
<path d="M259.21 26.2522C259.21 27.6336 259.62 28.984 260.387 30.1325C261.155 31.2811 262.246 32.1763 263.522 32.705C264.798 33.2336 266.203 33.3719 267.557 33.1024C268.912 32.8329 270.157 32.1677 271.134 31.1909C272.11 30.2141 272.776 28.9696 273.045 27.6148C273.315 26.26 273.176 24.8556 272.648 23.5794C272.119 22.3032 271.224 21.2123 270.075 20.4449C268.927 19.6774 267.576 19.2678 266.195 19.2678C265.277 19.2668 264.369 19.4468 263.521 19.7975C262.673 20.1481 261.903 20.6626 261.254 21.3113C260.605 21.9601 260.091 22.7304 259.74 23.5782C259.389 24.4261 259.209 25.3347 259.21 26.2522Z" fill="white"/>
<path d="M254.132 45.5053V48.383C257.756 50.623 261.931 51.8095 266.191 51.8095C270.451 51.8095 274.627 50.623 278.25 48.383V45.5127C278.29 43.904 278.007 42.3036 277.419 40.8058C276.831 39.308 275.949 37.943 274.825 36.7912C273.702 35.6394 272.359 34.724 270.876 34.099C269.393 33.4741 267.8 33.1521 266.191 33.1521C264.582 33.1521 262.989 33.4741 261.506 34.099C260.023 34.724 258.681 35.6394 257.557 36.7912C256.433 37.943 255.551 39.308 254.963 40.8058C254.375 42.3036 254.092 43.904 254.132 45.5127V45.5053Z" fill="white"/>
<path d="M61.1782 49.3634C64.1286 41.9456 60.507 33.5405 53.0892 30.5901C45.6714 27.6397 37.2663 31.2612 34.3159 38.679C31.3655 46.0968 34.9871 54.5019 42.4049 57.4523C49.8227 60.4027 58.2278 56.7812 61.1782 49.3634Z" fill="#E5E5E5"/>
<path d="M55.1172 45.8144C52.9092 50.2303 47.7574 52.8356 47.7574 52.8356C47.7574 52.8356 42.5614 50.2229 40.3977 45.8144C38.5798 42.1346 39.7279 38.175 42.6056 37.3066C46.7197 36.0628 47.7574 43.2312 47.7574 43.2312C47.7574 43.2312 48.8099 36.0628 52.9092 37.3066C55.7869 38.175 56.935 42.1787 55.1172 45.8144Z" fill="white"/>
<path d="M277.816 174.758C284.107 164.488 280.881 151.063 270.611 144.772C260.341 138.481 246.916 141.707 240.625 151.976C234.334 162.246 237.56 175.672 247.83 181.963C258.1 188.254 271.525 185.028 277.816 174.758Z" fill="#E5E5E5"/>
<path d="M269.087 169.164C264.009 174.573 255.369 176.089 255.369 176.089C255.369 176.089 249.002 170.054 247.766 162.746C246.743 156.645 250.136 151.412 254.655 151.405C261.146 151.405 259.549 162.209 259.549 162.209C259.549 162.209 264.193 152.317 269.602 155.909C273.371 158.411 273.312 164.645 269.087 169.164Z" fill="white"/>
<path fill-rule="evenodd" clip-rule="evenodd" d="M21.277 127.331C20.3644 126.764 19.5769 125.94 18.3331 126.065C17.8694 126.109 17.9725 125.727 17.9651 125.469C17.9651 120.906 17.9479 116.348 17.9136 111.795C17.9136 111.456 17.9136 111.184 18.2889 111.007C21.7701 109.233 23.2641 105.774 25.3911 102.816C26.48 101.345 27.2621 99.6706 27.6907 97.8916C28.1193 96.1127 28.1858 94.2657 27.886 92.4605C27.7315 91.4302 28.2099 90.9886 29.1372 90.7604C30.2485 90.5028 31.3451 90.8046 31.7425 91.57C32.7503 93.4293 33.43 95.4485 33.7518 97.5388C33.9578 99.2683 33.3396 100.954 33.1335 102.691C32.979 103.949 32.692 105.186 32.4564 106.451C32.7656 106.672 33.1188 106.562 33.4426 106.562L45.0048 106.525C46.624 106.525 47.4262 106.989 47.6543 108.063C47.7713 108.714 47.6773 109.384 47.386 109.978C47.0947 110.571 46.6214 111.055 46.0352 111.36C45.7481 111.5 45.2256 111.36 45.1962 111.824C45.1667 112.288 45.6966 112.236 45.9321 112.42C47.3305 113.37 47.0803 115.364 45.4685 116.49C45.0858 116.77 44.3277 116.645 44.313 117.226C44.2983 117.808 45.049 117.675 45.3286 117.962C46.462 119.073 45.9101 121.149 44.2247 121.995C43.9952 122.067 43.7714 122.155 43.5549 122.26C43.3636 122.385 43.1722 122.532 43.5549 122.797C45.2256 123.982 45.1962 125.638 43.5549 126.853L43.0545 127.221C42.4462 127.585 41.736 127.743 41.0305 127.67L22.9035 127.736C22.6191 127.782 22.3284 127.769 22.0488 127.7C21.7693 127.63 21.5067 127.505 21.277 127.331Z" fill="#E5E5E5"/>
<path fill-rule="evenodd" clip-rule="evenodd" d="M4.08463 119.346C4.08463 116.453 4.08463 113.554 4.08463 110.654C4.08463 110.065 4.13615 109.778 4.82061 109.778C8.36065 109.815 11.886 109.778 15.4187 109.778C16.1546 109.778 16.2209 110.006 16.2209 110.624C16.2209 116.453 16.2429 122.285 16.2871 128.119C16.2871 128.854 16.0884 129.068 15.3451 129.061C11.9154 129.061 8.48576 129.061 5.0414 129.097C4.18767 129.097 4.06992 128.818 4.07728 128.067C4.08464 125.145 4.08463 122.245 4.08463 119.346Z" fill="#E5E5E5"/>
<path fill-rule="evenodd" clip-rule="evenodd" d="M283.019 221.911C282.489 221.58 282.026 221.094 281.312 221.175C281.039 221.175 281.098 220.976 281.091 220.829C281.091 218.15 281.091 215.471 281.091 212.792C281.075 212.702 281.087 212.608 281.127 212.525C281.167 212.442 281.231 212.373 281.312 212.329C283.358 211.291 284.256 209.26 285.485 207.523C286.125 206.659 286.586 205.675 286.838 204.629C287.091 203.583 287.132 202.498 286.957 201.436C286.868 200.833 287.148 200.568 287.693 200.443C287.964 200.346 288.26 200.339 288.536 200.424C288.812 200.509 289.053 200.681 289.223 200.914C289.815 202.008 290.213 203.195 290.401 204.424C290.398 205.438 290.277 206.448 290.04 207.434C289.945 208.17 289.775 208.906 289.643 209.642C289.82 209.768 290.033 209.701 290.224 209.701H297.01C297.967 209.701 298.431 209.966 298.563 210.599C298.639 210.989 298.584 211.393 298.407 211.748C298.23 212.103 297.941 212.39 297.584 212.564C297.415 212.653 297.113 212.564 297.091 212.837C297.069 213.109 297.385 213.079 297.547 213.19C298.364 213.749 298.217 214.905 297.275 215.582C297.047 215.744 296.605 215.67 296.591 216.001C296.576 216.332 297.003 216.266 297.187 216.45C297.334 216.638 297.435 216.858 297.482 217.092C297.529 217.326 297.521 217.568 297.458 217.798C297.395 218.028 297.28 218.24 297.12 218.418C296.96 218.595 296.761 218.733 296.539 218.82C296.404 218.864 296.271 218.915 296.142 218.975C296.031 219.056 295.921 219.136 296.142 219.291C297.12 219.99 297.106 220.962 296.142 221.676L295.847 221.889C295.493 222.107 295.076 222.2 294.662 222.154C291.11 222.154 287.56 222.166 284.013 222.191C283.837 222.217 283.657 222.206 283.486 222.157C283.315 222.109 283.156 222.025 283.019 221.911Z" fill="#E5E5E5"/>
<path fill-rule="evenodd" clip-rule="evenodd" d="M272.877 217.223C272.877 215.523 272.877 213.815 272.877 212.115C272.877 211.769 272.877 211.6 273.334 211.607C275.409 211.607 277.485 211.607 279.56 211.607C279.965 211.607 280.031 211.74 280.031 212.101C280.031 215.535 280.031 218.97 280.031 222.404C280.031 222.846 279.913 222.964 279.479 222.964C277.463 222.964 275.453 222.964 273.437 222.964C272.936 222.964 272.87 222.794 272.87 222.36C272.907 220.631 272.885 218.923 272.877 217.223Z" fill="#E5E5E5"/>
<path d="M38.2192 208.318H35.5623C35.1651 208.326 34.7705 208.253 34.402 208.105C34.0336 207.956 33.699 207.735 33.4185 207.454C33.1379 207.172 32.9172 206.837 32.7696 206.468C32.622 206.1 32.5505 205.705 32.5595 205.308C32.5634 204.512 32.881 203.751 33.4433 203.189C34.0056 202.626 34.7671 202.309 35.5623 202.305H39.2422L40.9717 192.259H37.6378C36.8414 192.259 36.0776 191.942 35.5145 191.379C34.9513 190.816 34.635 190.052 34.635 189.256C34.635 188.46 34.9513 187.696 35.5145 187.133C36.0776 186.57 36.8414 186.253 37.6378 186.253H42.0536L43.2017 179.379C43.3143 178.671 43.6815 178.028 44.2344 177.572C44.7872 177.115 45.4878 176.876 46.2045 176.899C46.6426 176.906 47.0742 177.006 47.4706 177.193C47.8669 177.38 48.2188 177.649 48.503 177.983C48.7871 178.316 48.9969 178.707 49.1183 179.128C49.2398 179.549 49.2701 179.991 49.2073 180.424L48.1769 186.253H57.2221L58.3775 179.379C58.4911 178.661 58.8669 178.009 59.4322 177.551C59.9976 177.093 60.7126 176.861 61.4392 176.899C61.8743 176.908 62.3023 177.011 62.6944 177.199C63.0866 177.388 63.4339 177.658 63.7128 177.992C63.9917 178.326 64.1958 178.716 64.3115 179.136C64.4271 179.555 64.4515 179.995 64.3831 180.424L63.3969 186.253H66.0685C66.8617 186.259 67.6206 186.578 68.1801 187.14C68.7397 187.702 69.0546 188.463 69.0565 189.256C69.0452 190.046 68.7272 190.801 68.1697 191.362C67.6122 191.922 66.8587 192.244 66.0685 192.259H62.3886L60.6591 202.305H63.9415C64.3373 202.301 64.7299 202.376 65.0964 202.525C65.4629 202.675 65.7959 202.896 66.0761 203.175C66.3563 203.455 66.5781 203.787 66.7284 204.153C66.8787 204.519 66.9546 204.912 66.9516 205.308C66.9478 206.105 66.6294 206.868 66.0657 207.432C65.5021 207.995 64.7387 208.314 63.9415 208.318H59.614L58.3996 215.413C58.2871 216.121 57.9199 216.764 57.367 217.22C56.8141 217.677 56.1136 217.916 55.3968 217.893C54.9576 217.894 54.5232 217.801 54.1233 217.619C53.7234 217.437 53.3673 217.172 53.0795 216.84C52.7917 216.508 52.5789 216.118 52.4555 215.696C52.3321 215.275 52.3011 214.832 52.3646 214.397L53.4686 208.332H44.394L43.187 215.427C43.056 216.132 42.6782 216.768 42.1212 217.22C41.5642 217.671 40.8644 217.91 40.1474 217.893C39.7097 217.901 39.2757 217.811 38.8771 217.629C38.4785 217.448 38.1253 217.181 37.8433 216.846C37.5613 216.511 37.3575 216.117 37.2468 215.694C37.1362 215.27 37.1214 214.827 37.2035 214.397L38.2192 208.318ZM54.4548 202.305L56.1917 192.259H47.176L45.4391 202.305H54.4548Z" fill="#E5E5E5"/>
<path d="M227.674 138.194H225.554C225.239 138.196 224.926 138.135 224.635 138.015C224.343 137.895 224.079 137.718 223.856 137.495C223.633 137.272 223.457 137.007 223.338 136.715C223.219 136.423 223.159 136.11 223.162 135.795C223.166 135.162 223.419 134.555 223.867 134.108C224.315 133.66 224.921 133.407 225.554 133.403H228.498L229.882 125.395H227.203C226.59 125.361 226.014 125.094 225.593 124.649C225.171 124.203 224.936 123.613 224.936 123C224.936 122.386 225.171 121.796 225.593 121.351C226.014 120.905 226.59 120.638 227.203 120.604H230.713L231.619 115.129C231.71 114.563 232.003 114.051 232.445 113.686C232.887 113.322 233.446 113.131 234.018 113.149C234.367 113.155 234.711 113.235 235.027 113.384C235.343 113.533 235.623 113.748 235.85 114.014C236.076 114.28 236.243 114.591 236.339 114.927C236.436 115.262 236.46 115.615 236.41 115.96L235.593 120.604H242.813L243.733 115.129C243.826 114.557 244.125 114.04 244.575 113.676C245.024 113.311 245.591 113.123 246.169 113.149C246.516 113.157 246.857 113.24 247.169 113.39C247.482 113.541 247.759 113.756 247.982 114.022C248.204 114.288 248.368 114.599 248.462 114.933C248.555 115.267 248.576 115.617 248.524 115.96L247.737 120.604H249.9C250.534 120.608 251.141 120.863 251.587 121.312C252.034 121.762 252.285 122.37 252.285 123.003C252.275 123.634 252.021 124.235 251.576 124.682C251.131 125.128 250.53 125.384 249.9 125.395H246.956L245.536 133.44H248.156C248.471 133.437 248.784 133.496 249.076 133.616C249.368 133.735 249.633 133.911 249.857 134.133C250.08 134.356 250.257 134.621 250.377 134.912C250.497 135.204 250.557 135.516 250.555 135.832C250.553 136.467 250.3 137.076 249.85 137.526C249.401 137.975 248.792 138.229 248.156 138.231H244.704L243.74 143.883C243.645 144.446 243.35 144.956 242.909 145.32C242.469 145.683 241.912 145.876 241.341 145.863C240.992 145.862 240.647 145.785 240.33 145.638C240.013 145.492 239.731 145.278 239.504 145.013C239.277 144.747 239.11 144.436 239.014 144.1C238.918 143.764 238.896 143.411 238.949 143.066L239.825 138.231H232.598L231.626 143.883C231.527 144.45 231.227 144.962 230.781 145.326C230.335 145.69 229.773 145.88 229.197 145.863C228.848 145.868 228.501 145.795 228.183 145.65C227.865 145.504 227.584 145.29 227.359 145.022C227.134 144.754 226.972 144.44 226.884 144.102C226.796 143.763 226.784 143.41 226.85 143.066L227.674 138.194ZM240.612 133.44L241.996 125.432H234.813L233.429 133.44H240.612Z" fill="#E5E5E5"/>
<path d="M151.28 302C234.797 302 302.5 293.278 302.5 282.519C302.5 271.76 234.797 263.037 151.28 263.037C67.7627 263.037 0.0588379 271.76 0.0588379 282.519C0.0588379 293.278 67.7627 302 151.28 302Z" fill="#E5E5E5"/>
<path d="M43.7243 176.2C42.9198 179.13 42.3901 182.128 42.1419 185.157C42.2229 185.304 42.2008 185.893 42.1419 185.709C42.1419 186.202 41.4059 186.113 41.4059 185.628C41.4059 185.311 41.4059 184.995 41.4059 184.686C39.6543 182.514 37.1152 181.138 35.0618 179.247C33.405 177.767 32.2007 175.848 31.588 173.712C29.8806 167.824 31.4776 161.62 29.4316 155.762C27.6653 150.713 24.4932 146.319 21.8143 141.778C18.9808 136.936 16.8906 131.85 16.6625 126.183C16.4932 121.848 17.0157 116.063 20.3423 112.81C23.8456 109.359 28.1878 111.949 30.8668 115.018C38.646 123.946 42.245 135.221 43.7022 146.761C44.5044 153.142 45.336 159.567 45.1741 166.007C45.0301 169.444 44.5444 172.859 43.7243 176.2Z" fill="#FFC727"/>
<path d="M42.1714 187.497C42.5971 181.474 42.5257 175.426 41.9579 169.414C41.9647 169.393 41.9647 169.369 41.9579 169.348C42.061 164.461 42.4437 159.589 42.2523 154.695C42.0299 149.404 41.3254 144.144 40.1474 138.982C40.1474 138.923 40.037 138.937 40.0517 138.982C41.0038 144.054 41.5721 149.191 41.7518 154.349C41.8549 157.116 41.8328 159.878 41.6856 162.636C41.6414 163.534 41.5531 164.439 41.4943 165.344C39.4608 151.62 34.5012 138.493 26.9514 126.853C26.8484 126.698 26.5687 126.853 26.6644 127.029C32.0595 135.876 36.054 145.503 38.5062 155.57C34.7527 148.645 29.1078 142.948 24.9127 136.288C24.9127 136.251 24.8244 136.288 24.8465 136.288C28.6073 143.707 34.8337 149.535 38.83 156.851C39.5218 159.834 40.0787 162.837 40.5007 165.859C41.0634 170.007 41.3658 174.186 41.4059 178.371C39.1244 174.117 36.7619 170.04 34.8999 165.536C34.8484 165.418 34.6791 165.536 34.7159 165.617C36.3056 170.297 38.4326 175.339 41.4207 179.328C41.4207 182.272 41.3372 185.233 41.1704 188.211C40.7068 196.101 39.3599 203.895 38.7344 211.762C38.736 211.806 38.7532 211.848 38.7827 211.88C38.8123 211.912 38.8524 211.933 38.8959 211.938C38.9393 211.943 38.9831 211.933 39.0196 211.909C39.0561 211.885 39.0828 211.848 39.095 211.806C40.6702 203.782 41.698 195.66 42.1714 187.497Z" fill="#263238"/>
<path d="M33.7886 126.61C33.7886 126.551 33.6782 126.61 33.7003 126.647C35.1723 130.636 35.9598 134.676 36.9975 138.768C37.0088 138.804 37.0326 138.834 37.0644 138.853C37.0962 138.873 37.134 138.88 37.1708 138.874C37.2075 138.867 37.2407 138.848 37.2643 138.819C37.2879 138.79 37.3003 138.754 37.2992 138.717C36.8724 134.573 35.3931 130.43 33.7886 126.61Z" fill="#263238"/>
<path d="M70.4107 143.324C69.4474 145.662 68.3389 147.939 67.0915 150.139C64.4935 154.857 61.7851 159.177 61.2993 164.667C61.0785 167.118 60.9976 169.583 60.2542 171.946C59.57 173.976 58.5931 175.895 57.3545 177.642C54.5357 181.742 51.0178 185.274 48.4124 189.528C45.6993 193.964 43.6953 198.796 42.4731 203.85C42.4069 204.13 41.9726 204.056 42.0389 203.777C42.0389 203.777 42.0389 203.74 42.0389 203.718C42.0389 203.696 42.0389 203.718 42.0389 203.659C41.6267 191.883 42.5688 180.019 46.1603 168.737C47.7441 163.776 49.6494 158.923 51.8641 154.209C53.7924 150.124 56.1843 146.187 59.5624 143.132C61.7704 141.16 66.51 137.421 69.6306 139.401C71.1099 140.35 70.9995 141.852 70.4107 143.324Z" fill="#FFC727"/>
<path d="M58.5468 170.018C56.4719 173.434 54.1859 176.718 51.7023 179.85C50.5615 181.322 49.406 182.794 48.2726 184.303C47.7353 185.039 47.1318 185.709 46.6387 186.467C46.9479 185.23 47.2496 183.986 47.5661 182.75C49.0822 176.803 50.51 170.805 52.8062 165.087C55.1278 159.549 57.861 154.193 60.9829 149.064C61.0639 148.925 60.8431 148.829 60.7621 148.961C58.2745 153.053 55.7501 157.138 53.6599 161.473C52.5032 163.879 51.4955 166.354 50.6425 168.884C51.6004 163.515 52.9434 158.222 54.6609 153.046C54.6609 153.036 54.657 153.027 54.6501 153.02C54.6432 153.013 54.6338 153.009 54.6241 153.009C54.6143 153.009 54.605 153.013 54.5981 153.02C54.5912 153.027 54.5873 153.036 54.5873 153.046C52.3565 158.266 50.9607 163.804 50.4511 169.458C49.9604 170.984 49.487 172.527 49.0307 174.088C47.176 180.711 45.5495 187.335 44.0408 194.01C44.0131 189.62 44.3925 185.237 45.1742 180.917C45.1742 180.814 45.049 180.792 45.0196 180.917C43.872 185.421 43.4889 190.086 43.8862 194.717C43.3121 197.263 42.7552 199.807 42.2155 202.349C41.0601 207.773 39.6396 213.3 38.9625 218.813C38.9632 218.838 38.9726 218.863 38.9893 218.882C39.006 218.901 39.0289 218.914 39.0541 218.919C39.0793 218.923 39.1052 218.919 39.1274 218.906C39.1497 218.893 39.1668 218.873 39.176 218.85C39.9855 215.906 40.4713 212.8 41.1336 209.79C41.796 206.78 42.4805 203.762 43.1797 200.752C44.2027 196.373 45.2772 192.001 46.3664 187.637C47.1024 186.04 48.5081 184.619 49.5606 183.272C50.7234 181.801 51.8789 180.329 53.0049 178.857C55.1258 176.089 57.0209 173.155 58.6719 170.084C58.7161 169.996 58.6131 169.951 58.5468 170.018Z" fill="#263238"/>
<path d="M59.0767 164.984C56.4864 168.29 54.2422 171.854 52.3793 175.618C52.3793 175.67 52.4309 175.721 52.4603 175.67C54.7197 172.137 56.935 168.582 59.1797 165.05C59.2239 164.984 59.1209 164.925 59.0767 164.984Z" fill="#263238"/>
<path d="M8.95679 154.489C10.4803 157.116 12.2245 160.273 11.5695 163.423C11.15 165.425 9.69276 167.044 9.42781 169.083C8.83903 173.58 13.3211 176.553 16.5594 178.651C24.6551 183.95 35.7316 188.682 37.2035 199.515C37.2624 199.898 37.9395 199.803 37.8732 199.427C37.8767 199.403 37.8767 199.378 37.8732 199.354C37.8732 199.354 37.9174 199.354 37.9174 199.287C38.9718 193.819 38.9143 188.195 37.7481 182.75C36.5411 177.171 34.1051 172.152 31.2274 167.25C26.3626 158.949 21.2108 150.448 13.851 144.089C11.8197 142.33 7.64675 139.166 6.02761 143.14C4.45262 147.018 7.08741 151.287 8.95679 154.489Z" fill="#FFC727"/>
<path d="M16.3533 172.086C21.7186 177.893 30.2412 181.146 34.8557 187.644C32.278 177.751 27.4069 168.604 20.6367 160.943C20.4601 160.737 20.7397 160.457 20.9311 160.641C25.8663 165.437 29.8143 171.153 32.5521 177.466C31.2738 173.06 29.5987 168.778 27.5475 164.674C27.4739 164.52 27.6947 164.38 27.783 164.535C30.3258 169.015 32.1464 173.868 33.1777 178.916C39.2569 193.635 39.8015 210.901 38.543 226.408C38.543 226.629 38.1897 226.636 38.1971 226.408C38.543 214.183 38.3443 201.746 35.4151 189.808C35.3562 189.558 35.29 189.315 35.2237 189.072C30.2044 182.073 21.7186 178.827 16.265 172.189C16.2135 172.115 16.2944 172.019 16.3533 172.086Z" fill="#263238"/>
<path d="M15.1243 167.103C17.9357 169.686 20.703 172.321 23.5218 174.904C23.5218 174.904 23.5218 174.978 23.485 174.956C20.2955 172.813 17.4218 170.234 14.9477 167.294C14.9223 167.271 14.9072 167.239 14.9059 167.204C14.9045 167.17 14.9169 167.136 14.9403 167.11C14.9637 167.085 14.9963 167.07 15.0308 167.069C15.0653 167.067 15.0989 167.08 15.1243 167.103Z" fill="#263238"/>
<path d="M14.668 155.916C17.1567 159.999 19.9725 163.873 23.0875 167.501C23.1317 167.545 23.0875 167.611 23.0139 167.567C19.5218 164.245 16.6462 160.33 14.5208 156.005C14.5149 155.986 14.5155 155.965 14.5226 155.947C14.5296 155.928 14.5427 155.913 14.5597 155.903C14.5766 155.892 14.5966 155.888 14.6162 155.891C14.6358 155.893 14.6541 155.902 14.668 155.916Z" fill="#263238"/>
<path d="M27.3341 237.352H51.9819L48.6627 204.189H31.1317L27.3341 237.352Z" fill="#455A64"/>
<path d="M30.5135 209.584H49.2073L48.6627 204.189H31.1318L30.5135 209.584Z" fill="#263238"/>
<path d="M28.1142 205.808H51.2165V200.516H28.1142V205.808Z" fill="#455A64"/>
<path d="M0 237.352L37.8218 237.175L75.6435 237.109L151.28 236.984L226.916 237.109L264.738 237.168L302.559 237.352L264.738 237.536L226.916 237.595L151.28 237.72L75.6435 237.595L37.8218 237.529L0 237.352Z" fill="#263238"/>
<path d="M215.516 0.345913H87.0291C85.3058 0.362265 83.6026 0.717904 82.0167 1.39252C80.4309 2.06714 78.9935 3.04752 77.7866 4.27768C76.5796 5.50785 75.6268 6.9637 74.9826 8.56211C74.3383 10.1605 74.0152 11.8702 74.0317 13.5935V278.103C74.0003 281.583 75.3516 284.933 77.7887 287.417C80.2258 289.901 83.5493 291.315 87.0291 291.35H215.516C218.997 291.317 222.323 289.904 224.763 287.42C227.203 284.936 228.557 281.585 228.528 278.103V13.5861C228.557 10.1051 227.203 6.75488 224.763 4.27205C222.323 1.78922 218.997 0.37701 215.516 0.345913ZM220.402 269.926C220.402 276.889 215.192 282.519 208.759 282.519H93.8074C87.3602 282.519 82.1495 276.889 82.1495 269.926V23.6101C82.1495 9.42784 87.3602 8.73603 93.8074 8.73603H116.829C118.168 8.73603 119.265 10.2595 119.265 12.1436V12.9605C119.265 17.3764 121.679 17.3764 124.652 17.3764H177.9C180.895 17.3764 183.287 17.3764 183.287 12.9605V12.1436C183.287 10.2595 184.369 8.73603 185.731 8.73603H208.759C215.192 8.73603 220.402 10.6275 220.402 23.6101V269.926Z" fill="#263238"/>
<path d="M158.536 11.8713H144.016C143.897 11.8723 143.78 11.8497 143.671 11.8049C143.561 11.7602 143.462 11.6941 143.379 11.6105C143.295 11.5269 143.229 11.4275 143.184 11.3182C143.139 11.2088 143.117 11.0916 143.118 10.9734C143.118 10.7353 143.212 10.5069 143.381 10.3385C143.549 10.1701 143.777 10.0755 144.016 10.0755H158.536C158.775 10.0755 159.003 10.1701 159.171 10.3385C159.34 10.5069 159.434 10.7353 159.434 10.9734C159.435 11.0916 159.413 11.2088 159.368 11.3182C159.323 11.4275 159.257 11.5269 159.173 11.6105C159.09 11.6941 158.991 11.7602 158.881 11.8049C158.772 11.8497 158.655 11.8723 158.536 11.8713Z" fill="white"/>
<path d="M220.41 23.6101V269.926C220.41 276.889 215.192 282.519 208.759 282.519H93.8074C87.3602 282.519 82.1495 276.889 82.1495 269.926V23.6101C82.1495 9.42785 87.3602 8.73603 93.8074 8.73603H116.829C118.168 8.73603 119.265 10.2595 119.265 12.1436V12.9605C119.265 17.3764 121.679 17.3764 124.652 17.3764H177.9C180.895 17.3764 183.295 17.3764 183.295 12.9605V12.1436C183.295 10.2595 184.369 8.73603 185.731 8.73603H208.759C215.192 8.73603 220.41 10.6275 220.41 23.6101Z" fill="white"/>
<path d="M220.402 23.6101V61.5717H82.1422V23.6101C82.1422 9.42785 87.3602 8.73603 93.8074 8.73603H116.836C118.175 8.73603 119.265 10.2595 119.265 12.1436V12.9605C119.265 17.3764 121.686 17.3764 124.652 17.3764H177.9C180.895 17.3764 183.295 17.3764 183.295 12.9605V12.1436C183.295 10.2595 184.376 8.73603 185.738 8.73603H208.759C215.192 8.73603 220.402 10.6275 220.402 23.6101Z" fill="#FFC727"/>
<path d="M112.862 14.2706L112.634 14.4913C112.596 14.5366 112.554 14.5785 112.509 14.6165C111.94 14.0482 111.17 13.728 110.367 13.7259C109.967 13.7237 109.57 13.802 109.201 13.9563C108.832 14.1105 108.497 14.3376 108.218 14.6238C108.182 14.5786 108.143 14.5368 108.1 14.4987L107.879 14.2779C107.968 14.1896 108.063 14.1086 108.159 14.0277C108.358 13.8635 108.575 13.7227 108.807 13.6082C109.079 13.4722 109.368 13.3755 109.668 13.3211C109.815 13.3211 109.955 13.2843 110.102 13.2623H110.477H110.772C111.043 13.2928 111.31 13.3571 111.566 13.4536C111.75 13.522 111.927 13.6057 112.096 13.7039C112.28 13.8062 112.453 13.927 112.612 14.0645L112.847 14.2706H112.862Z" fill="white"/>
<path d="M108.924 15.3156L108.593 14.9477C108.828 14.7122 109.106 14.5254 109.413 14.3979C109.72 14.2705 110.049 14.2049 110.382 14.2049C110.714 14.2049 111.043 14.2705 111.35 14.3979C111.657 14.5254 111.935 14.7122 112.17 14.9477L111.817 15.3009C111.624 15.1071 111.395 14.9543 111.142 14.8519C110.889 14.7494 110.618 14.6993 110.345 14.7048C109.81 14.7148 109.3 14.9341 108.924 15.3156Z" fill="white"/>
<path d="M111.456 15.6836L111.103 16.0295C110.906 15.8365 110.642 15.7282 110.367 15.7278C110.23 15.7269 110.094 15.7539 109.967 15.807C109.841 15.8601 109.726 15.9383 109.631 16.0369L109.278 15.6836C109.42 15.5403 109.59 15.4266 109.777 15.349C109.964 15.2714 110.164 15.2315 110.367 15.2315C110.569 15.2315 110.77 15.2714 110.957 15.349C111.143 15.4266 111.313 15.5403 111.456 15.6836Z" fill="white"/>
<path d="M110.683 16.3386C110.683 16.4226 110.65 16.5031 110.591 16.5624C110.531 16.6218 110.451 16.6551 110.367 16.6551C110.283 16.6551 110.202 16.6218 110.143 16.5624C110.084 16.5031 110.05 16.4226 110.05 16.3386C110.05 16.2547 110.084 16.1742 110.143 16.1149C110.202 16.0555 110.283 16.0222 110.367 16.0222C110.451 16.0222 110.531 16.0555 110.591 16.1149C110.65 16.1742 110.683 16.2547 110.683 16.3386Z" fill="white"/>
<path d="M92.0778 15.8529C92.5818 15.8529 92.9904 15.4443 92.9904 14.9403C92.9904 14.4363 92.5818 14.0277 92.0778 14.0277C91.5738 14.0277 91.1652 14.4363 91.1652 14.9403C91.1652 15.4443 91.5738 15.8529 92.0778 15.8529Z" fill="white"/>
<path d="M94.0502 14.9476C94.0502 14.7654 94.1044 14.5872 94.2058 14.4358C94.3072 14.2843 94.4513 14.1664 94.6199 14.097C94.7884 14.0276 94.9737 14.0098 95.1524 14.0459C95.3311 14.082 95.495 14.1704 95.6233 14.2998C95.7517 14.4292 95.8387 14.5938 95.8734 14.7727C95.908 14.9517 95.8888 15.1369 95.818 15.3048C95.7472 15.4728 95.6282 15.616 95.4759 15.7162C95.3237 15.8164 95.1451 15.8691 94.9628 15.8676C94.7201 15.8657 94.488 15.7679 94.3171 15.5956C94.1461 15.4233 94.0502 15.1904 94.0502 14.9476Z" fill="white"/>
<path d="M97.8552 15.8529C98.3593 15.8529 98.7678 15.4443 98.7678 14.9403C98.7678 14.4363 98.3593 14.0277 97.8552 14.0277C97.3512 14.0277 96.9426 14.4363 96.9426 14.9403C96.9426 15.4443 97.3512 15.8529 97.8552 15.8529Z" fill="white"/>
<path d="M99.8203 14.9476C99.8203 14.7657 99.8743 14.5878 99.9754 14.4365C100.076 14.2853 100.22 14.1673 100.388 14.0977C100.556 14.0281 100.741 14.0099 100.92 14.0454C101.098 14.0809 101.262 14.1685 101.391 14.2971C101.519 14.4258 101.607 14.5897 101.643 14.7682C101.678 14.9466 101.66 15.1316 101.59 15.2997C101.521 15.4678 101.403 15.6115 101.251 15.7126C101.1 15.8137 100.922 15.8676 100.74 15.8676C100.496 15.8676 100.262 15.7707 100.09 15.5982C99.9172 15.4256 99.8203 15.1916 99.8203 14.9476Z" fill="white"/>
<path d="M102.705 14.9476C102.705 14.7657 102.759 14.5878 102.86 14.4365C102.961 14.2853 103.105 14.1673 103.273 14.0977C103.441 14.0281 103.626 14.0099 103.805 14.0454C103.983 14.0809 104.147 14.1685 104.276 14.2971C104.404 14.4258 104.492 14.5897 104.528 14.7682C104.563 14.9466 104.545 15.1316 104.475 15.2997C104.406 15.4678 104.288 15.6115 104.136 15.7126C103.985 15.8137 103.807 15.8676 103.625 15.8676C103.381 15.8676 103.147 15.7707 102.975 15.5982C102.802 15.4256 102.705 15.1916 102.705 14.9476Z" fill="white"/>
<path d="M210.025 16.9348H202.577V13.4757H210.025V16.9348ZM202.945 16.5668H209.657V13.8658H202.945V16.5668Z" fill="white"/>
<path d="M208.001 14.0718H203.195V16.3534H208.001V14.0718Z" fill="white"/>
<path d="M210.702 14.2926H210.04V16.1399H210.702V14.2926Z" fill="white"/>
<path d="M170.334 163.475H120.781V170.57H170.334V163.475Z" fill="#FFC727"/>
<path d="M181.595 163.475H174.5V170.57H181.595V163.475Z" fill="#DBDBDB"/>
<path d="M176.619 167.022C176.619 167.109 176.593 167.195 176.545 167.267C176.496 167.34 176.427 167.397 176.347 167.43C176.266 167.464 176.177 167.472 176.092 167.455C176.006 167.438 175.927 167.396 175.865 167.334C175.804 167.273 175.762 167.194 175.745 167.108C175.728 167.023 175.736 166.934 175.77 166.853C175.803 166.772 175.86 166.703 175.932 166.655C176.005 166.606 176.09 166.581 176.178 166.581C176.236 166.581 176.293 166.592 176.347 166.614C176.4 166.636 176.449 166.669 176.49 166.71C176.531 166.751 176.563 166.8 176.586 166.853C176.608 166.907 176.619 166.964 176.619 167.022Z" fill="#263238"/>
<path d="M178.511 167.022C178.511 167.109 178.485 167.195 178.436 167.267C178.388 167.34 178.319 167.397 178.238 167.43C178.157 167.464 178.069 167.472 177.983 167.455C177.897 167.438 177.819 167.396 177.757 167.334C177.695 167.273 177.653 167.194 177.636 167.108C177.619 167.023 177.628 166.934 177.661 166.853C177.695 166.772 177.751 166.703 177.824 166.655C177.896 166.606 177.982 166.581 178.069 166.581C178.127 166.581 178.185 166.592 178.238 166.614C178.292 166.636 178.34 166.669 178.381 166.71C178.422 166.751 178.455 166.8 178.477 166.853C178.499 166.907 178.511 166.964 178.511 167.022Z" fill="#263238"/>
<path d="M180.351 167.022C180.351 167.109 180.325 167.195 180.276 167.267C180.228 167.34 180.159 167.397 180.078 167.43C179.997 167.464 179.909 167.472 179.823 167.455C179.737 167.438 179.659 167.396 179.597 167.334C179.535 167.273 179.493 167.194 179.476 167.108C179.459 167.023 179.468 166.934 179.501 166.853C179.535 166.772 179.591 166.703 179.664 166.655C179.736 166.606 179.822 166.581 179.909 166.581C179.967 166.581 180.025 166.592 180.078 166.614C180.132 166.636 180.18 166.669 180.221 166.71C180.262 166.751 180.295 166.8 180.317 166.853C180.339 166.907 180.351 166.964 180.351 167.022Z" fill="#263238"/>
<path d="M92.3575 36.3498L89.1266 33.3176L92.3575 30.2927L92.8653 30.8226L90.1937 33.3176L92.8653 35.8199L92.3575 36.3498Z" fill="white"/>
<path d="M212.608 32.0664C212.958 32.0664 213.241 31.7831 213.241 31.4335C213.241 31.0839 212.958 30.8006 212.608 30.8006C212.259 30.8006 211.976 31.0839 211.976 31.4335C211.976 31.7831 212.259 32.0664 212.608 32.0664Z" fill="white"/>
<path d="M212.608 34.3259C212.958 34.3259 213.241 34.0425 213.241 33.6929C213.241 33.3434 212.958 33.06 212.608 33.06C212.259 33.06 211.976 33.3434 211.976 33.6929C211.976 34.0425 212.259 34.3259 212.608 34.3259Z" fill="white"/>
<path d="M213.249 35.9597C213.258 36.0491 213.249 36.1395 213.221 36.225C213.194 36.3105 213.149 36.3893 213.089 36.4561C213.028 36.523 212.955 36.5765 212.873 36.6131C212.791 36.6497 212.702 36.6686 212.612 36.6686C212.522 36.6686 212.433 36.6497 212.351 36.6131C212.269 36.5765 212.196 36.523 212.136 36.4561C212.076 36.3893 212.03 36.3105 212.003 36.225C211.975 36.1395 211.966 36.0491 211.976 35.9597C211.992 35.8027 212.067 35.6574 212.184 35.5519C212.302 35.4464 212.454 35.388 212.612 35.388C212.77 35.388 212.922 35.4464 213.04 35.5519C213.158 35.6574 213.232 35.8027 213.249 35.9597Z" fill="white"/>
<path d="M100.806 188.638C100.013 189.13 99.0844 189.358 98.1534 189.29C97.2224 189.221 96.337 188.859 95.6245 188.256C94.912 187.653 94.4091 186.839 94.1878 185.932C93.9666 185.025 94.0385 184.071 94.3933 183.208C94.748 182.344 95.3672 181.615 96.1621 181.126C96.957 180.636 97.8866 180.411 98.8174 180.483C99.7482 180.555 100.632 180.92 101.343 181.525C102.053 182.131 102.553 182.946 102.772 183.854C102.988 184.757 102.915 185.705 102.563 186.564C102.21 187.422 101.595 188.148 100.806 188.638Z" fill="#DBDBDB"/>
<path d="M99.835 184.406C99.835 184.671 99.7565 184.93 99.6093 185.15C99.4621 185.37 99.2529 185.542 99.0081 185.643C98.7634 185.745 98.4941 185.771 98.2342 185.72C97.9744 185.668 97.7357 185.54 97.5484 185.353C97.3611 185.166 97.2335 184.927 97.1818 184.667C97.1301 184.407 97.1567 184.138 97.258 183.893C97.3594 183.649 97.5311 183.439 97.7514 183.292C97.9716 183.145 98.2306 183.066 98.4955 183.066C98.8508 183.066 99.1915 183.208 99.4427 183.459C99.6939 183.71 99.835 184.051 99.835 184.406Z" fill="white"/>
<path d="M100.807 188.1V188.638C100.11 189.066 99.3092 189.293 98.4919 189.293C97.6746 189.293 96.8733 189.066 96.1772 188.638V188.086C96.2106 187.494 96.469 186.938 96.8994 186.532C97.3298 186.125 97.8996 185.898 98.4919 185.898C99.0841 185.898 99.6539 186.125 100.084 186.532C100.515 186.938 100.773 187.494 100.807 188.086V188.1Z" fill="white"/>
<path d="M206.478 182.014C206.555 182.016 206.629 182.047 206.684 182.102C206.739 182.157 206.77 182.231 206.772 182.308C206.772 182.386 206.741 182.461 206.686 182.517C206.631 182.572 206.556 182.603 206.478 182.603C206.439 182.603 206.402 182.595 206.366 182.58C206.331 182.565 206.299 182.544 206.272 182.516C206.245 182.489 206.224 182.456 206.21 182.42C206.197 182.385 206.19 182.347 206.191 182.308C206.191 182.232 206.221 182.158 206.274 182.103C206.328 182.048 206.401 182.016 206.478 182.014Z" fill="black"/>
<path d="M207.354 182.014C207.431 182.016 207.505 182.047 207.56 182.102C207.615 182.157 207.646 182.231 207.648 182.308C207.648 182.386 207.617 182.461 207.562 182.517C207.507 182.572 207.432 182.603 207.354 182.603C207.315 182.603 207.277 182.595 207.242 182.58C207.207 182.565 207.175 182.544 207.148 182.516C207.121 182.489 207.1 182.456 207.086 182.42C207.072 182.385 207.066 182.347 207.067 182.308C207.067 182.232 207.097 182.158 207.15 182.103C207.204 182.048 207.277 182.016 207.354 182.014Z" fill="black"/>
<path d="M208.252 182.014C208.329 182.016 208.403 182.047 208.458 182.102C208.512 182.157 208.544 182.231 208.546 182.308C208.553 182.35 208.55 182.393 208.539 182.434C208.527 182.475 208.507 182.513 208.479 182.546C208.452 182.578 208.417 182.604 208.379 182.622C208.34 182.64 208.298 182.649 208.255 182.649C208.213 182.649 208.171 182.64 208.132 182.622C208.093 182.604 208.059 182.578 208.031 182.546C208.004 182.513 207.983 182.475 207.972 182.434C207.96 182.393 207.958 182.35 207.964 182.308C207.966 182.232 207.997 182.159 208.05 182.105C208.103 182.05 208.175 182.018 208.252 182.014Z" fill="black"/>
<path d="M94.6169 194.187L108.91 194.055L120.729 193.974L144.369 193.915L155.629 193.974L167.442 194.055L179.261 194.187L167.442 194.319L155.629 194.393L144.369 194.459L120.729 194.393L108.91 194.319L94.6169 194.187Z" fill="#263238"/>
<path d="M94.6096 196.689C101.278 196.579 110.801 196.527 117.506 196.483L137.517 196.417L157.535 196.483L163.144 196.689L157.535 196.903L137.517 196.962L117.506 196.903C110.838 196.859 101.285 196.807 94.6096 196.689Z" fill="#263238"/>
<path d="M94.6096 199.582C101.881 199.471 112.273 199.42 119.559 199.376L141.373 199.309L163.18 199.376L169.296 199.582L163.18 199.795L141.373 199.861L119.559 199.795C112.273 199.751 101.888 199.677 94.6096 199.582Z" fill="#263238"/>
<path d="M133.079 181.543H106.577V184.406H133.079V181.543Z" fill="#455A64"/>
<path d="M127.721 185.834H106.577V187.563H127.721V185.834Z" fill="#DBDBDB"/>
<path d="M94.087 205.565L108.372 205.47L122.65 205.44L151.206 205.381L179.762 205.44L194.047 205.47L208.325 205.565L194.047 205.654L179.762 205.683L151.206 205.749L122.65 205.683L108.372 205.654L94.087 205.565Z" fill="#DBDBDB"/>
<path d="M100.807 219.733C100.013 220.224 99.0849 220.452 98.1542 220.384C97.2236 220.315 96.3386 219.953 95.6263 219.35C94.9141 218.747 94.4112 217.934 94.1898 217.027C93.9683 216.121 94.0398 215.167 94.3939 214.304C94.7481 213.441 95.3666 212.712 96.1608 212.222C96.955 211.732 97.884 211.506 98.8145 211.577C99.745 211.647 100.629 212.011 101.34 212.616C102.051 213.22 102.552 214.034 102.772 214.942C102.99 215.845 102.918 216.795 102.565 217.655C102.212 218.516 101.597 219.243 100.807 219.733Z" fill="#DBDBDB"/>
<path d="M99.835 215.486C99.835 215.751 99.7565 216.01 99.6093 216.23C99.4621 216.451 99.2529 216.622 99.0081 216.724C98.7634 216.825 98.4941 216.852 98.2342 216.8C97.9744 216.748 97.7357 216.621 97.5484 216.433C97.3611 216.246 97.2335 216.007 97.1818 215.747C97.1301 215.488 97.1567 215.218 97.258 214.974C97.3594 214.729 97.5311 214.52 97.7514 214.372C97.9716 214.225 98.2306 214.147 98.4955 214.147C98.8502 214.149 99.1898 214.29 99.4406 214.541C99.6913 214.792 99.8331 215.131 99.835 215.486Z" fill="white"/>
<path d="M100.806 219.181V219.733C100.11 220.161 99.3092 220.388 98.4918 220.388C97.6745 220.388 96.8732 220.161 96.1772 219.733V219.181C96.1594 218.866 96.2061 218.551 96.3144 218.254C96.4227 217.958 96.5903 217.687 96.807 217.458C97.0237 217.228 97.2849 217.046 97.5746 216.921C97.8643 216.796 98.1764 216.732 98.4918 216.732C98.8073 216.732 99.1194 216.796 99.4091 216.921C99.6988 217.046 99.96 217.228 100.177 217.458C100.393 217.687 100.561 217.958 100.669 218.254C100.778 218.551 100.824 218.866 100.806 219.181Z" fill="white"/>
<path d="M206.478 213.102C206.556 213.102 206.631 213.133 206.686 213.188C206.741 213.243 206.772 213.318 206.772 213.396C206.772 213.434 206.765 213.472 206.75 213.508C206.735 213.543 206.713 213.575 206.686 213.602C206.658 213.628 206.626 213.649 206.59 213.663C206.554 213.677 206.516 213.684 206.478 213.683C206.44 213.684 206.402 213.677 206.367 213.663C206.332 213.649 206.299 213.628 206.273 213.601C206.246 213.574 206.225 213.542 206.211 213.507C206.196 213.472 206.19 213.434 206.191 213.396C206.19 213.358 206.197 213.32 206.21 213.284C206.224 213.248 206.245 213.216 206.272 213.188C206.299 213.161 206.331 213.139 206.366 213.124C206.402 213.109 206.439 213.102 206.478 213.102Z" fill="black"/>
<path d="M207.354 213.102C207.432 213.102 207.507 213.133 207.562 213.188C207.617 213.243 207.648 213.318 207.648 213.396C207.648 213.434 207.64 213.472 207.625 213.508C207.611 213.543 207.589 213.575 207.561 213.602C207.534 213.628 207.501 213.649 207.466 213.663C207.43 213.677 207.392 213.684 207.354 213.683C207.316 213.684 207.278 213.677 207.243 213.663C207.207 213.649 207.175 213.628 207.148 213.601C207.122 213.574 207.1 213.542 207.086 213.507C207.072 213.472 207.066 213.434 207.067 213.396C207.066 213.358 207.072 213.32 207.086 213.284C207.1 213.248 207.121 213.216 207.148 213.188C207.175 213.161 207.207 213.139 207.242 213.124C207.277 213.109 207.315 213.102 207.354 213.102Z" fill="black"/>
<path d="M208.252 213.102C208.33 213.102 208.404 213.133 208.46 213.188C208.515 213.243 208.546 213.318 208.546 213.396C208.535 213.465 208.5 213.528 208.446 213.574C208.393 213.619 208.325 213.644 208.255 213.644C208.185 213.644 208.117 213.619 208.064 213.574C208.011 213.528 207.976 213.465 207.964 213.396C207.964 213.319 207.994 213.245 208.048 213.19C208.102 213.135 208.175 213.103 208.252 213.102Z" fill="black"/>
<path d="M94.6169 225.26L108.91 225.127L120.729 225.054L144.369 224.988L155.629 225.054L167.442 225.127L179.261 225.26L167.442 225.4L155.629 225.473L144.369 225.54L120.729 225.473L108.91 225.392L94.6169 225.26Z" fill="#263238"/>
<path d="M94.6096 227.77C101.278 227.659 110.801 227.6 117.506 227.556L137.517 227.497L157.535 227.556L163.144 227.77L157.535 227.983L137.517 228.042L117.506 227.976C110.838 227.931 101.285 227.88 94.6096 227.77Z" fill="#263238"/>
<path d="M133.079 212.623H106.577V215.486H133.079V212.623Z" fill="#455A64"/>
<path d="M127.721 216.914H106.577V218.643H127.721V216.914Z" fill="#DBDBDB"/>
<path d="M94.087 235.166L108.372 235.078L122.65 235.048L151.206 234.982L179.762 235.048L194.047 235.078L208.325 235.166L194.047 235.262L179.762 235.291L151.206 235.35L122.65 235.291L108.372 235.254L94.087 235.166Z" fill="#DBDBDB"/>
<path d="M100.806 250.364C100.013 250.856 99.0844 251.085 98.1534 251.016C97.2224 250.947 96.337 250.585 95.6245 249.982C94.912 249.379 94.4091 248.565 94.1878 247.658C93.9666 246.751 94.0385 245.798 94.3933 244.934C94.748 244.071 95.3672 243.342 96.1621 242.852C96.957 242.363 97.8866 242.137 98.8174 242.209C99.7482 242.281 100.632 242.646 101.343 243.252C102.053 243.857 102.553 244.672 102.772 245.58C102.988 246.483 102.915 247.431 102.563 248.29C102.21 249.149 101.595 249.874 100.806 250.364Z" fill="#DBDBDB"/>
<path d="M99.835 246.117C99.835 246.382 99.7565 246.641 99.6093 246.862C99.4621 247.082 99.2529 247.254 99.0081 247.355C98.7634 247.456 98.4941 247.483 98.2342 247.431C97.9744 247.379 97.7357 247.252 97.5484 247.065C97.3611 246.877 97.2335 246.639 97.1818 246.379C97.1301 246.119 97.1567 245.85 97.258 245.605C97.3594 245.36 97.5311 245.151 97.7514 245.004C97.9716 244.856 98.2306 244.778 98.4955 244.778C98.8508 244.778 99.1915 244.919 99.4427 245.17C99.6939 245.421 99.835 245.762 99.835 246.117Z" fill="white"/>
<path d="M100.807 249.812V250.364C100.113 250.799 99.3106 251.03 98.4919 251.03C97.6731 251.03 96.8709 250.799 96.1772 250.364V249.812C96.2106 249.221 96.469 248.665 96.8994 248.258C97.3298 247.851 97.8996 247.624 98.4919 247.624C99.0841 247.624 99.6539 247.851 100.084 248.258C100.515 248.665 100.773 249.221 100.807 249.812Z" fill="white"/>
<path d="M206.478 243.74C206.52 243.734 206.563 243.736 206.604 243.748C206.645 243.759 206.683 243.779 206.715 243.807C206.748 243.835 206.774 243.869 206.792 243.908C206.809 243.946 206.819 243.988 206.819 244.031C206.819 244.074 206.809 244.116 206.792 244.154C206.774 244.193 206.748 244.227 206.715 244.255C206.683 244.283 206.645 244.303 206.604 244.314C206.563 244.326 206.52 244.328 206.478 244.322C206.409 244.311 206.346 244.275 206.3 244.222C206.255 244.169 206.23 244.101 206.23 244.031C206.23 243.961 206.255 243.893 206.3 243.84C206.346 243.787 206.409 243.751 206.478 243.74Z" fill="black"/>
<path d="M207.354 243.74C207.396 243.734 207.439 243.736 207.48 243.748C207.521 243.759 207.559 243.779 207.591 243.807C207.623 243.835 207.649 243.869 207.667 243.908C207.685 243.946 207.694 243.988 207.694 244.031C207.694 244.074 207.685 244.116 207.667 244.154C207.649 244.193 207.623 244.227 207.591 244.255C207.559 244.283 207.521 244.303 207.48 244.314C207.439 244.326 207.396 244.328 207.354 244.322C207.284 244.311 207.221 244.275 207.176 244.222C207.131 244.169 207.106 244.101 207.106 244.031C207.106 243.961 207.131 243.893 207.176 243.84C207.221 243.787 207.284 243.751 207.354 243.74Z" fill="black"/>
<path d="M208.252 243.74C208.294 243.734 208.337 243.736 208.378 243.748C208.419 243.759 208.457 243.779 208.489 243.807C208.521 243.835 208.547 243.869 208.565 243.908C208.583 243.946 208.592 243.988 208.592 244.031C208.592 244.074 208.583 244.116 208.565 244.154C208.547 244.193 208.521 244.227 208.489 244.255C208.457 244.283 208.419 244.303 208.378 244.314C208.337 244.326 208.294 244.328 208.252 244.322C208.182 244.311 208.119 244.275 208.074 244.222C208.029 244.169 208.004 244.101 208.004 244.031C208.004 243.961 208.029 243.893 208.074 243.84C208.119 243.787 208.182 243.751 208.252 243.74Z" fill="black"/>
<path d="M120.634 255.899L130.533 255.766L138.724 255.692L155.092 255.626L162.893 255.685L171.077 255.766L179.261 255.899L171.077 256.031L162.893 256.112L155.092 256.171L138.724 256.112L130.533 256.031L120.634 255.899Z" fill="#263238"/>
<path d="M120.634 258.401C125.256 258.29 131.872 258.239 136.494 258.195L150.352 258.129L164.218 258.195L168.104 258.401L164.218 258.614L150.352 258.681L136.494 258.614C131.872 258.555 125.256 258.555 120.634 258.401Z" fill="#263238"/>
<path d="M133.079 243.254H106.577V246.117H133.079V243.254Z" fill="#455A64"/>
<path d="M127.721 247.553H106.577V249.282H127.721V247.553Z" fill="#DBDBDB"/>
<path d="M94.0871 273.26H117.042V255.626H94.0871V273.26Z" fill="#FFC727"/>
<path opacity="0.2" d="M96.5599 259.762C96.4754 260.193 96.5316 260.64 96.7202 261.036C96.9088 261.432 97.2199 261.757 97.6075 261.963C97.9951 262.169 98.4386 262.245 98.8726 262.18C99.3066 262.114 99.708 261.911 100.018 261.6C100.327 261.289 100.529 260.886 100.592 260.452C100.656 260.018 100.578 259.575 100.37 259.188C100.162 258.801 99.8356 258.492 99.4385 258.305C99.0413 258.118 98.5946 258.064 98.1643 258.151C97.7675 258.23 97.4032 258.426 97.1176 258.713C96.832 259 96.6379 259.365 96.5599 259.762Z" fill="black"/>
<path opacity="0.2" d="M100.453 269.536H117.042L108.748 260.241L100.453 269.536Z" fill="black"/>
<path d="M94.087 269.544H107.784L100.939 263.486L94.087 269.544Z" fill="#FFC727"/>
<path opacity="0.3" d="M94.087 269.544H107.784L100.939 263.486L94.087 269.544Z" fill="black"/>
<path d="M117.049 269.536H94.0944V273.26H117.049V269.536Z" fill="#FFC727"/>
<path opacity="0.3" d="M117.049 269.536H94.0944V273.26H117.049V269.536Z" fill="black"/>
<path d="M174.765 135.743C167.703 140.104 159.568 142.413 151.269 142.413C142.969 142.413 134.834 140.104 127.773 135.743C119.505 130.632 113.129 122.963 109.613 113.901C106.097 104.838 105.632 94.8762 108.289 85.5258C110.946 76.1753 116.58 67.9464 124.336 62.0871C132.093 56.2278 141.548 53.0578 151.269 53.0578C160.989 53.0578 170.445 56.2278 178.201 62.0871C185.957 67.9464 191.591 76.1753 194.248 85.5258C196.905 94.8762 196.44 104.838 192.924 113.901C189.408 122.963 183.033 130.632 174.765 135.743Z" fill="#A6A6A6"/>
<path d="M149.462 87.4191C166.036 97.1708 187.733 103.5 193.12 100.093C198.507 96.6851 207.103 69.1375 206.426 62.5947C206.147 59.7686 186.945 58.2598 185.032 60.6076C183.118 62.9553 181.072 79.662 180.034 81.2149C179.298 82.3335 162.334 79.6325 151.721 78.5654C144.95 77.8735 140.718 82.2747 149.462 87.4191Z" fill="#AD6359"/>
<path d="M206.213 66.3261C206.868 63.4999 209.157 48.8835 208.833 45.0932C208.509 41.3029 206.853 30.462 203.931 30.3737C201.01 30.2854 201.238 33.5237 201.238 33.5237C201.238 33.5237 199.81 29.0563 196.859 29.2697C193.907 29.4832 194.437 34.4216 194.437 34.4216C194.437 34.4216 192.634 29.9468 189.705 30.359C186.776 30.7711 188.152 35.7022 188.152 35.7022C188.152 35.7022 186.68 31.5292 184.428 32.8907C181.698 34.5246 185.252 41.9138 185.282 46.1383C185.282 47.0951 184.009 65.5165 184.009 65.5165L206.213 66.3261Z" fill="#AD6359"/>
<path d="M188.078 35.3489C190.684 40.7877 190.882 43.6139 190.191 49.509C190.191 49.6268 190.345 49.671 190.367 49.5532C191.574 43.842 191.839 40.2578 188.336 35.209C188.13 34.9588 187.916 35.0839 188.078 35.3489Z" fill="#263238"/>
<path d="M194.224 34.083C196.432 39.9708 196.675 43.0398 196.432 49.2662C196.432 49.2876 196.44 49.3082 196.456 49.3234C196.471 49.3386 196.491 49.3471 196.513 49.3471C196.534 49.3471 196.555 49.3386 196.57 49.3234C196.585 49.3082 196.594 49.2876 196.594 49.2662C197.366 43.1796 197.55 39.5955 194.57 34.002C194.4 33.7444 194.121 33.796 194.224 34.083Z" fill="#263238"/>
<path d="M201.216 33.8696C202.945 39.7574 203.357 43.0766 202.312 49.0895C202.305 49.1188 202.31 49.1496 202.326 49.1751C202.342 49.2007 202.368 49.2189 202.397 49.2257C202.426 49.2325 202.457 49.2274 202.482 49.2116C202.508 49.1957 202.526 49.1703 202.533 49.141C204.189 43.1134 203.711 38.9257 201.4 33.8401C201.245 33.4869 201.105 33.5016 201.216 33.8696Z" fill="#263238"/>
<path d="M183.501 69.3289C183.501 69.3289 179.033 63.235 177.664 60.1218C176.295 57.0086 175.456 43.5403 178.349 43.1944C182.095 42.7454 184.112 50.4217 184.605 54.315C184.605 54.315 193.267 53.2699 195.909 58.4732C198.551 63.6766 183.501 69.3289 183.501 69.3289Z" fill="#AD6359"/>
<path d="M179.416 43.4078C183.096 45.4612 183.449 50.613 184.215 54.3518C184.224 54.4068 184.247 54.4588 184.28 54.5035C184.314 54.5481 184.358 54.5842 184.408 54.6086C184.458 54.633 184.514 54.6452 184.57 54.644C184.626 54.6429 184.681 54.6285 184.73 54.602C188.41 54.4033 193.606 55.1908 195.983 58.2819C195.997 58.2987 196.016 58.3098 196.038 58.3132C196.059 58.3165 196.081 58.3118 196.099 58.2999C196.117 58.2881 196.131 58.2699 196.136 58.249C196.142 58.228 196.14 58.2056 196.13 58.1862C194.025 54.5652 188.962 53.3729 184.973 53.844C184.237 49.9948 183.692 44.843 179.438 43.4078C179.409 43.3637 179.394 43.3931 179.416 43.4078Z" fill="#263238"/>
<path d="M175.125 102.124L179.652 80.0447C179.652 80.0447 162.415 77.1964 151.839 77.3657C141.263 77.535 137.767 81.6123 151.044 89.5461C158.809 94.223 166.851 98.4234 175.125 102.124Z" fill="#455A64"/>
<path d="M175.376 80.3832C174.483 83.4203 173.668 86.482 172.932 89.5682C172.571 91.0843 172.196 92.6004 171.85 94.1312C171.504 95.662 171.269 97.3106 170.916 98.8856C170.916 98.996 171.063 99.0475 171.092 98.9371C171.482 97.4284 171.975 95.9417 172.38 94.433C172.785 92.9242 173.116 91.3051 173.521 89.7448C174.262 86.6537 174.927 83.5455 175.515 80.42C175.517 80.4029 175.512 80.3859 175.502 80.372C175.492 80.3581 175.477 80.3481 175.461 80.3437C175.444 80.3394 175.427 80.3409 175.411 80.3481C175.395 80.3554 175.383 80.3678 175.376 80.3832Z" fill="#263238"/>
<path d="M171.283 137.635C168.458 139.066 165.484 140.184 162.415 140.969L161.782 141.131C161.385 141.234 160.972 141.322 160.575 141.41C154.355 142.761 147.917 142.761 141.697 141.41C141.094 141.278 140.49 141.131 139.894 140.969C136.315 140.037 132.868 138.657 129.635 136.862C129.377 136.729 129.127 136.59 128.899 136.435C128.501 136.207 128.104 135.964 127.699 135.699C126.047 134.676 124.463 133.545 122.959 132.314C122.775 132.181 122.599 132.034 122.422 131.879C120.913 130.608 119.489 129.239 118.161 127.78L117.763 127.346C117.013 126.497 116.294 125.621 115.607 124.718C115.725 124.233 115.85 123.747 115.968 123.246C116.012 123.107 116.041 122.959 116.078 122.82C116.424 121.48 116.814 120.119 117.182 118.713C117.219 118.566 117.27 118.426 117.307 118.271C117.69 116.939 118.095 115.563 118.543 114.187C118.578 114.039 118.622 113.892 118.676 113.745C119.11 112.398 119.566 111.022 120.052 109.638C120.096 109.506 120.155 109.359 120.207 109.211C120.693 107.857 121.193 106.488 121.73 105.112C121.782 104.979 121.833 104.84 121.892 104.7C122.429 103.331 123.003 101.977 123.6 100.608C123.659 100.453 123.725 100.313 123.791 100.166C124.402 98.7899 125.042 97.4284 125.712 96.0668C125.771 95.9344 125.837 95.7945 125.903 95.6694C126.59 94.2858 127.309 92.9193 128.06 91.57C128.09 91.504 128.124 91.44 128.163 91.3787L128.31 91.1211C129.09 89.7375 129.907 88.3685 130.768 87.0364C130.856 86.8892 130.952 86.742 131.048 86.5948C131.953 85.1965 132.91 83.8276 133.903 82.5028C133.973 82.3931 134.05 82.2875 134.131 82.1863L134.227 82.0686C135.103 80.9058 136.023 79.765 136.972 78.6757C137.2 78.4137 137.446 78.1678 137.708 77.9398L137.819 77.8515C137.951 77.7484 138.076 77.6527 138.223 77.5571C138.248 77.5357 138.275 77.5183 138.304 77.5055C142.809 74.5028 151.39 75.7098 152.487 77.3068C152.536 77.3696 152.58 77.436 152.619 77.5055L152.766 77.719C153.674 79.1119 154.5 80.5569 155.239 82.0465C155.975 83.4449 156.638 84.9904 157.315 86.5728C157.926 88.0079 158.514 89.5167 159.096 91.0843C159.096 91.1652 159.155 91.2388 159.177 91.3124C159.211 91.383 159.238 91.457 159.258 91.5332C159.802 93.0052 160.332 94.4771 160.855 96.0521C161.296 97.399 161.745 98.7679 162.165 100.152C162.209 100.306 162.26 100.439 162.305 100.593C162.746 102.014 163.18 103.456 163.593 104.899C163.608 104.973 163.627 105.047 163.651 105.119C164.056 106.488 164.432 107.857 164.807 109.219C164.807 109.344 164.858 109.454 164.895 109.572C165.278 110.978 165.631 112.376 165.992 113.752L166.11 114.194C166.463 115.57 166.801 116.939 167.125 118.279C167.125 118.323 167.125 118.36 167.125 118.396C167.125 118.433 167.177 118.61 167.199 118.72C167.537 120.119 167.861 121.487 168.17 122.827C168.524 124.387 168.862 125.903 169.171 127.353C169.208 127.508 169.237 127.648 169.267 127.787C169.583 129.259 169.885 130.672 170.157 132.012C170.157 132.115 170.157 132.218 170.216 132.321C170.533 133.889 170.812 135.338 171.055 136.641C171.055 136.715 171.055 136.781 171.092 136.847L171.283 137.635Z" fill="#FFC727"/>
<path opacity="0.1" d="M139.894 140.969C140.49 141.131 141.094 141.278 141.697 141.41H160.575C160.972 141.322 161.385 141.234 161.782 141.131L162.415 140.969H139.894ZM171.151 136.656C171.151 136.582 171.114 136.509 171.099 136.435H128.869C129.127 136.59 129.377 136.729 129.605 136.862H171.151C171.151 136.796 171.151 136.729 171.151 136.656ZM170.253 132.027C170.238 131.986 170.226 131.944 170.216 131.901H122.393C122.569 132.056 122.746 132.203 122.93 132.336H170.275C170.253 132.233 170.231 132.13 170.216 132.027H170.253ZM169.267 127.368H117.749L118.146 127.802H169.34C169.296 127.662 169.267 127.552 169.23 127.368H169.267ZM114.989 127.368C114.982 127.443 114.967 127.517 114.945 127.589C114.945 127.515 114.945 127.441 114.996 127.368H114.989ZM168.207 122.842H116.041C116.041 122.981 115.975 123.129 115.938 123.268H168.317L168.207 122.842ZM167.162 118.426C167.162 118.389 167.162 118.352 167.162 118.308H117.278C117.241 118.463 117.189 118.602 117.153 118.75H167.265C167.236 118.632 167.214 118.529 167.184 118.411L167.162 118.426ZM165.999 113.767H118.654C118.598 113.911 118.552 114.059 118.514 114.209H166.139L165.999 113.767ZM164.903 109.587C164.866 109.469 164.844 109.359 164.814 109.233H120.185C120.133 109.381 120.074 109.528 120.023 109.66H164.917C164.916 109.636 164.919 109.611 164.925 109.587H164.903ZM163.6 104.913L163.534 104.7H121.885C121.826 104.84 121.774 104.979 121.716 105.112H163.666C163.648 105.047 163.633 104.98 163.622 104.913H163.6ZM162.172 100.166H123.784C123.717 100.313 123.651 100.453 123.592 100.608H162.319C162.319 100.453 162.238 100.321 162.194 100.166H162.172ZM160.7 95.64H125.911C125.844 95.7651 125.778 95.9049 125.719 96.0374H160.899C160.835 95.9083 160.778 95.7756 160.73 95.64H160.7ZM159.177 91.3198C159.177 91.2462 159.125 91.1726 159.096 91.0916H128.317L128.177 91.3492C128.139 91.4106 128.104 91.4745 128.074 91.5406H159.287C159.268 91.4644 159.241 91.3904 159.206 91.3198H159.177ZM157.315 86.5801H131.048C130.959 86.7273 130.864 86.8745 130.783 87.0217H157.513C157.462 86.8671 157.396 86.7199 157.344 86.5801H157.315ZM155.232 82.0391H134.242L134.146 82.1569C134.064 82.258 133.988 82.3637 133.918 82.4734H155.467C155.394 82.3262 155.328 82.179 155.261 82.0391H155.232ZM152.759 77.7116L152.612 77.4982H138.319C138.29 77.5109 138.262 77.5283 138.238 77.5497C138.091 77.6454 137.966 77.7411 137.833 77.8441L137.723 77.9324H152.928C152.876 77.8627 152.829 77.7889 152.788 77.7116H152.759Z" fill="black"/>
<path d="M151.655 89.1119C148.181 89.7374 142.573 84.1808 140.468 79.8091C140.328 79.5147 140.939 76.4678 141.499 72.729C141.837 70.4622 142.154 67.9231 142.279 65.5901L156.726 69.925C155.735 72.7977 155.1 75.781 154.834 78.8082C154.825 79.1304 154.842 79.4529 154.886 79.7723C154.89 79.8238 154.89 79.8755 154.886 79.9269C155.099 81.7668 155.011 88.501 151.655 89.1119Z" fill="#AD6359"/>
<path d="M154.908 79.9269C154.908 80.0299 154.908 80.1403 154.908 80.2654C146.128 78.4108 143.419 73.9655 141.867 69.8735C142.043 68.4383 142.19 66.9811 142.257 65.5901L156.704 69.9176C155.713 72.7926 155.081 75.7786 154.82 78.8082C154.803 79.1305 154.82 79.4537 154.871 79.7723C154.877 79.8252 154.889 79.8771 154.908 79.9269Z" fill="#263238"/>
<path d="M138.967 48.8761C137.355 54.0647 140.034 69.0933 143.721 72.4273C149.057 77.2995 157.83 77.7999 161.981 71.3822C166.007 65.1559 162.165 45.6231 158.051 42.5762C152.016 38.0941 141.344 41.2072 138.967 48.8761Z" fill="#AD6359"/>
<path d="M151.28 58.3702C151.28 58.3702 151.206 58.4364 151.213 58.4732C151.42 59.4815 151.493 60.6812 150.632 61.1669C150.632 61.1669 150.632 61.2331 150.632 61.2184C151.773 60.8357 151.662 59.2534 151.28 58.3702Z" fill="#263238"/>
<path d="M150.22 57.4355C148.564 57.59 149.006 60.8798 150.536 60.7327C152.067 60.5855 151.604 57.303 150.22 57.4355Z" fill="#263238"/>
<path d="M157.609 57.3987C157.609 57.3545 157.697 57.3987 157.705 57.4723C157.808 58.4953 158.095 59.6802 159.066 59.8716C159.066 59.8716 159.066 59.9305 159.066 59.9231C157.903 59.9157 157.543 58.3702 157.609 57.3987Z" fill="#263238"/>
<path d="M158.382 56.2138C160.001 55.8679 160.59 59.1577 159.066 59.4521C157.543 59.7465 157.02 56.5008 158.382 56.2138Z" fill="#263238"/>
<path d="M148.718 56.1034C149.134 55.9195 149.54 55.7132 149.933 55.4852C150.391 55.3264 150.784 55.0212 151.052 54.6167C151.105 54.4734 151.112 54.317 151.073 54.1693C151.033 54.0216 150.949 53.8899 150.831 53.7924C150.559 53.6414 150.251 53.5665 149.94 53.5756C149.63 53.5847 149.327 53.6774 149.064 53.844C148.484 54.0971 148.017 54.5558 147.754 55.1319C147.695 55.2671 147.678 55.4169 147.705 55.562C147.732 55.7071 147.802 55.8406 147.906 55.9453C148.01 56.0501 148.143 56.1211 148.288 56.1493C148.433 56.1775 148.583 56.1615 148.718 56.1034Z" fill="#263238"/>
<path d="M159.434 54.3812C158.98 54.3535 158.528 54.2995 158.08 54.2193C157.595 54.2325 157.12 54.0793 156.733 53.7851C156.633 53.6683 156.573 53.5231 156.559 53.37C156.546 53.2169 156.581 53.0635 156.66 52.9313C156.863 52.6983 157.126 52.5241 157.42 52.427C157.713 52.3299 158.028 52.3135 158.33 52.3793C158.961 52.4093 159.559 52.6715 160.008 53.1153C160.119 53.2207 160.194 53.3578 160.223 53.5078C160.252 53.6578 160.234 53.8131 160.171 53.9522C160.108 54.0913 160.003 54.2074 159.871 54.2842C159.739 54.3611 159.586 54.395 159.434 54.3812Z" fill="#263238"/>
<path d="M153.017 64.4641C153.328 64.8324 153.713 65.1324 154.146 65.3451C154.579 65.5579 155.052 65.6789 155.534 65.7005C155.956 65.7263 156.38 65.6891 156.792 65.5901C156.872 65.5783 156.951 65.5586 157.028 65.5312L157.241 65.465C157.293 65.4477 157.339 65.414 157.371 65.369C157.402 65.3239 157.419 65.2699 157.418 65.2148C157.423 65.1806 157.423 65.1459 157.418 65.1117V65.0234C157.329 64.2359 157.094 63.0584 157.094 63.0584C157.403 63.1614 158.949 63.6251 158.875 63.2203C158.22 59.8495 157.491 56.1108 156.13 52.9166C156.122 52.8934 156.105 52.8742 156.084 52.8628C156.062 52.8513 156.037 52.8487 156.013 52.8553C155.99 52.8619 155.97 52.8772 155.957 52.8982C155.944 52.9192 155.94 52.9443 155.946 52.9681C156.446 56.2285 157.521 59.3785 158.073 62.6462C157.522 62.4738 156.95 62.3797 156.373 62.3665C156.262 62.4107 156.866 64.6481 156.873 65.0013C156.878 65.0132 156.878 65.0263 156.873 65.0381C155.578 65.384 154.533 65.1191 153.134 64.4052C153.009 64.3095 152.943 64.3905 153.017 64.4641Z" fill="#263238"/>
<path d="M156.174 65.2957C155.84 65.8625 155.366 66.3339 154.798 66.6646C154.482 66.8328 154.122 66.8972 153.767 66.8486C152.987 66.7456 152.884 66.0611 152.95 65.4503C152.993 65.129 153.069 64.8132 153.179 64.5082C154.066 65.0861 155.117 65.3623 156.174 65.2957Z" fill="#263238"/>
<path d="M154.798 66.6646C154.482 66.8328 154.122 66.8972 153.767 66.8486C152.987 66.7456 152.884 66.0611 152.95 65.4503C153.35 65.4163 153.749 65.5176 154.084 65.7378C154.419 65.9581 154.67 66.2845 154.798 66.6646Z" fill="#FF9CBD"/>
<path opacity="0.2" d="M138.996 59.1798C139.938 58.6204 141.535 55.2644 142.242 53.8881C142.948 52.5118 142.396 46.1162 142.176 44.2248C140.677 45.4547 139.563 47.0897 138.967 48.935C138.275 51.0914 138.371 55.1172 138.996 59.1798Z" fill="#263238"/>
<path d="M155.011 47.9635C154.551 48.6717 153.917 49.2505 153.17 49.6446C152.422 50.0388 151.587 50.2354 150.742 50.2156C149.883 50.1957 149.042 49.9569 148.3 49.5216C147.558 49.0863 146.94 48.469 146.503 47.728C146.503 47.6838 146.408 47.728 146.43 47.728C146.82 48.5481 147.426 49.2465 148.184 49.7482C148.941 50.25 149.82 50.5362 150.728 50.5762C151.626 50.5727 152.508 50.3319 153.283 49.8783C154.058 49.4247 154.7 48.7743 155.144 47.9929C155.151 47.9635 155.055 47.8973 155.011 47.9635Z" fill="#263238"/>
<path d="M148.336 36.5117C145.495 36.9459 143.088 38.8595 142.301 40.9276C141.861 42.1109 141.837 43.409 142.235 44.6074C142.235 44.659 142.352 44.6074 142.338 44.6074C142.139 43.5331 142.232 42.4249 142.609 41.3993C142.986 40.3737 143.632 39.4684 144.479 38.7785C145.399 37.9788 146.492 37.4042 147.673 37.1002C148.853 36.7962 150.088 36.7711 151.28 37.0269C152.441 37.2534 153.484 37.8845 154.224 38.808C154.29 38.9036 154.496 38.808 154.437 38.7123C153.421 37.0269 150.919 36.1216 148.336 36.5117Z" fill="#263238"/>
<path d="M165.675 40.5302C165.025 39.1876 163.923 38.1167 162.562 37.5053C160.678 36.6516 158.728 37.0711 156.792 37.5053C156.784 37.5087 156.778 37.5144 156.773 37.5216C156.768 37.5288 156.766 37.5372 156.766 37.5458C156.766 37.5544 156.768 37.5628 156.773 37.57C156.778 37.5772 156.784 37.5828 156.792 37.5863C158.433 37.2109 160.126 36.9165 161.76 37.5053C163.113 37.9803 164.259 38.9086 165.006 40.1327C165.731 41.3968 165.976 42.88 165.696 44.3102C165.416 45.7404 164.63 47.0218 163.482 47.9193C162.809 48.4199 162.041 48.7774 161.224 48.9698C160.408 49.1622 159.561 49.1854 158.735 49.038C158.669 49.038 158.639 49.119 158.735 49.1337C160.225 49.4443 161.778 49.2009 163.102 48.4489C164.425 47.697 165.429 46.4882 165.926 45.049C166.401 43.5633 166.312 41.9543 165.675 40.5302Z" fill="#263238"/>
<path d="M138.474 51.9157C138.474 51.9157 135.132 47.1613 137.002 43.9304C138.076 42.1051 142.352 41.7887 142.352 41.7887C143.273 39.9585 144.882 38.5687 146.827 37.9248C150.286 36.6663 154.768 38.2118 154.768 38.2118C154.768 38.2118 157.903 35.8567 161.289 37.2698C166.014 39.2348 166.308 46.0205 162.143 48.7363C159.199 50.6424 154.636 48.4198 154.636 48.4198C154.238 48.5228 150.382 51.5551 146.768 48.2358C146.768 48.2358 144.494 50.8338 141.992 49.5238C141.718 50.2328 141.235 50.8415 140.606 51.2688C139.978 51.6962 139.234 51.9218 138.474 51.9157Z" fill="#263238"/>
<path d="M142.124 61.1227C142.124 61.1227 138.65 56.3242 136.465 57.568C134.279 58.8118 136.95 65.8109 139.548 66.7309C139.874 66.8726 140.225 66.9469 140.58 66.9491C140.935 66.9514 141.287 66.8816 141.615 66.7441C141.942 66.6065 142.238 66.4039 142.485 66.1487C142.732 65.8934 142.925 65.5907 143.051 65.2589L142.124 61.1227Z" fill="#AD6359"/>
<path d="M137.296 59.5551C137.286 59.5551 137.277 59.559 137.27 59.5659C137.263 59.5728 137.259 59.5822 137.259 59.5919C137.259 59.6017 137.263 59.611 137.27 59.6179C137.277 59.6248 137.286 59.6287 137.296 59.6287C139.121 60.3647 140.108 61.9986 140.799 63.7281C140.689 63.5464 140.541 63.3907 140.364 63.2718C140.188 63.1529 139.988 63.0736 139.778 63.0393C139.569 63.0051 139.354 63.0166 139.149 63.0733C138.944 63.1299 138.754 63.2303 138.591 63.3675C138.584 63.3765 138.58 63.3875 138.579 63.399C138.577 63.4106 138.58 63.4222 138.585 63.4325C138.591 63.4427 138.599 63.4511 138.61 63.4565C138.62 63.462 138.631 63.4643 138.643 63.4631C138.96 63.356 139.302 63.3501 139.623 63.4464C139.943 63.5427 140.226 63.7363 140.431 64.0004C140.772 64.4448 141.065 64.9233 141.307 65.4282C141.396 65.5901 141.683 65.4944 141.624 65.3104C141.62 65.2959 141.62 65.2808 141.624 65.2663C141.616 62.9553 139.769 59.7465 137.296 59.5551Z" fill="#263238"/>
<path d="M131.011 81.524C115.283 96.1478 94.9482 127.456 98.2012 134.124C101.822 141.55 123.725 121.038 123.695 119.787C123.695 118.838 131.901 101.572 138.106 87.6178C144.31 73.6638 134.897 77.9103 131.011 81.524Z" fill="#AD6359"/>
<path d="M98.2012 134.124C101.381 139.121 110.573 140.446 133.403 145.944C136.56 146.68 147.938 125.859 144.604 124.873C140.409 123.629 123.85 119.721 122.606 119.581C112.089 118.455 96.0374 130.731 98.2012 134.124Z" fill="#AD6359"/>
<path d="M137.024 124.049C137.024 124.049 146.29 123.938 151.177 125.395C157.719 127.338 162.57 131.71 164.49 133.66C168.502 137.745 175.383 150.382 172.086 152.995C169.142 155.364 162.731 142.087 162.731 142.087C162.731 142.087 171.46 154.555 167.346 156.741C163.232 158.926 156.704 143.103 156.704 143.103C156.704 143.103 165.396 156.108 160.796 157.697C157.315 158.897 150.595 144.891 150.595 144.891C150.595 144.891 157.992 156.122 154.466 157.506C150.573 159.044 143.559 146.503 143.559 146.503C133.992 148.527 128.641 145.583 125.064 143.037C124.203 142.419 137.024 124.049 137.024 124.049Z" fill="#AD6359"/>
<path d="M159.986 137.591C161.061 139.011 162.194 140.453 163.114 142.006C164.034 143.559 164.954 145.075 165.764 146.672C166.849 148.745 167.698 150.932 168.295 153.193C166.949 149.256 163.637 143.773 162.687 142.249C161.738 140.726 160.869 139.173 159.927 137.657C159.898 137.583 159.957 137.554 159.986 137.591Z" fill="#263238"/>
<path d="M154.437 140.91C155.74 142.794 157.101 144.59 158.316 146.555C159.53 148.52 160.524 150.419 161.576 152.442C161.664 152.597 161.576 152.59 161.458 152.442C160.31 150.477 159.088 148.763 157.911 146.798C156.733 144.832 155.637 142.853 154.393 140.954C154.371 140.91 154.422 140.888 154.437 140.91Z" fill="#263238"/>
<path d="M149.167 142.912C151.23 145.75 152.996 148.794 154.437 151.994C154.511 152.148 154.371 152.126 154.282 151.994C152.59 148.895 151.28 146.511 149.072 143.007C149.072 142.934 149.123 142.853 149.167 142.912Z" fill="#263238"/>
<path d="M109.623 122.746C113.75 120.041 118.726 118.947 123.607 119.67C123.666 119.67 123.666 119.78 123.607 119.773C118.551 119.412 111.611 121.767 109.623 122.834C109.609 122.864 109.572 122.783 109.623 122.746Z" fill="#263238"/>
<path d="M108.439 102.065L127.986 113.237C127.986 113.237 136.082 97.7449 139.195 87.6399C142.308 77.535 139.541 72.9204 127.868 83.099C121.013 89.021 114.524 95.3547 108.439 102.065Z" fill="#455A64"/>
<path d="M129.024 109.086C126.414 107.29 123.759 105.573 121.061 103.934C119.728 103.117 118.404 102.278 117.057 101.484C115.71 100.689 114.223 99.938 112.832 99.1211C112.737 99.0622 112.634 99.2021 112.729 99.2683C114.039 100.107 115.298 101.042 116.608 101.888C117.918 102.735 119.338 103.588 120.707 104.435C123.416 106.108 126.161 107.71 128.943 109.241C129.024 109.248 129.105 109.152 129.024 109.086Z" fill="#263238"/>
<path d="M127.162 112.766C127.456 112.899 127.743 113.024 128.03 113.164L127.905 113.2C128.457 111.773 129.083 110.389 129.686 108.991C130.29 107.592 130.967 106.238 131.644 104.876C132.321 103.515 133.005 102.161 133.749 100.829C134.492 99.4965 135.221 98.1644 136.038 96.869C135.515 98.3042 134.919 99.7026 134.301 101.094C133.682 102.485 133.042 103.861 132.38 105.237C131.717 106.613 131.026 107.953 130.312 109.3C129.598 110.647 128.84 111.979 128.104 113.281L128.052 113.362L127.979 113.318C127.677 113.141 127.419 112.95 127.162 112.766Z" fill="#263238"/>
<path d="M136.42 99.5848C135.6 100.913 134.472 102.024 133.131 102.823C133.538 102.154 134.033 101.543 134.603 101.005C135.145 100.455 135.756 99.978 136.42 99.5848Z" fill="#263238"/>
<path d="M248.826 130.606C247.795 139.026 240.84 146.253 240.84 146.253C240.84 146.253 230.89 144.972 224.818 139.055C219.755 134.117 219.357 127 223.53 123.938C229.514 119.522 235.306 130.613 235.306 130.613C235.306 130.613 232.973 118.352 240.369 117.984C245.536 117.785 249.687 123.585 248.826 130.606Z" fill="#FFC727"/>
<path d="M253.639 96.0447C249.886 101.035 242.798 103.088 242.798 103.088C242.798 103.088 236.91 98.6133 235.225 92.6077C233.812 87.6031 236.174 82.9149 239.957 82.4954C245.381 81.9067 245.036 91.0916 245.036 91.0916C245.036 91.0916 248.016 82.3924 252.874 84.9094C256.252 86.6611 256.767 91.8791 253.639 96.0447Z" fill="#FFC727"/>
<path d="M65.8109 89.2811C62.1751 94.352 55.1319 96.5673 55.1319 96.5673C55.1319 96.5673 49.1557 92.2324 47.3232 86.2636C45.7923 81.2884 48.0591 76.5488 51.8273 76.0483C57.2368 75.3123 57.0969 84.5267 57.0969 84.5267C57.0969 84.5267 59.8789 75.7613 64.7879 78.1605C68.2101 79.8606 68.8504 85.0714 65.8109 89.2811Z" fill="#FFC727"/>
</g>
<defs>
<clipPath id="clip0_111_1341">
<rect width="302.559" height="302" fill="white"/>
</clipPath>
</defs>
</svg>
