<svg width="75" height="75" viewBox="0 0 75 75" fill="none" xmlns="http://www.w3.org/2000/svg">
<path d="M7 66.51V8H67.15V66.51H7Z" fill="#0C0824"/>
<path d="M5 6V69.98H70.63V6H5ZM7.7339 8.73368H67.894V67.2443H7.7339V8.73368ZM27.7634 42.231L25.5955 50.4238C25.5524 50.6597 25.4663 50.7007 25.1997 50.7007H21.1839C20.9071 50.7007 20.864 50.6146 20.9071 50.3049L28.6719 23.1116C28.8114 22.6195 28.8955 22.1826 28.9385 20.825C28.9385 20.6425 29.0349 20.5584 29.1744 20.5584H34.9006C35.0832 20.5584 35.1775 20.6015 35.2206 20.825L43.9268 50.348C43.9801 50.5715 43.9268 50.7007 43.7032 50.7007H39.1953C38.9594 50.7007 38.8323 50.6474 38.7892 50.4649L36.525 42.2289H27.7552L27.7634 42.231ZM35.3908 37.787C34.6217 34.7641 32.8169 28.1422 32.1442 24.9368H32.0908C31.5145 28.1299 30.0604 33.546 28.9406 37.787H35.3908ZM47.6964 22.5887C47.6964 20.8271 48.9147 19.7894 50.4959 19.7894C52.1634 19.7894 53.2955 20.9214 53.2955 22.5887C53.2955 24.3934 52.1203 25.388 50.4426 25.388C48.808 25.388 47.6862 24.3954 47.6862 22.5887H47.6964ZM48.0061 28.8046C48.0061 28.5913 48.0922 28.5052 48.3158 28.5052H52.6105C52.8566 28.5052 52.9407 28.5913 52.9407 28.8251V50.4115C52.9407 50.6351 52.8976 50.7212 52.6207 50.7212H48.3896C48.1128 50.7212 48.0266 50.592 48.0266 50.3685V28.8025L48.0061 28.8046Z" fill="#F77C17"/>
</svg>
