<svg width="75" height="75" viewBox="0 0 75 75" fill="none" xmlns="http://www.w3.org/2000/svg">
<path d="M7.42261 8.24292H67.5773V66.757H7.42261V8.24292Z" fill="#0C0824"/>
<path d="M7.42266 8.24297H67.5773V66.757H7.42266V8.24297ZM4.6875 69.4922H70.3125V5.50781H4.6875V69.4922ZM48.9305 31.7578C46.7695 31.7578 46.0312 32.8523 46.0312 33.7547C46.0312 34.7391 46.5234 35.4234 49.4227 36.9258C53.7164 39.0047 55.0477 40.9992 55.0477 43.9266C55.0477 48.3023 51.7125 50.6531 47.2008 50.6531C45.2645 50.7249 43.34 50.3226 41.5945 49.4812C41.4023 49.3992 41.3766 49.2633 41.3766 49.043V45.0187C41.3766 44.7445 41.5125 44.6625 41.7047 44.8008C43.3439 45.8549 45.2519 46.4146 47.2008 46.4133C49.3617 46.4133 50.2641 45.5109 50.2641 44.2805C50.2641 43.2961 49.6359 42.4219 46.8727 40.9992C42.9891 39.1406 41.3766 37.2492 41.3766 34.1086C41.3766 30.5813 44.1375 27.6563 48.9234 27.6563C50.5894 27.5847 52.2529 27.8452 53.8172 28.4227C53.9073 28.4811 53.9802 28.5625 54.0284 28.6585C54.0765 28.7545 54.0983 28.8616 54.0914 28.9688V32.7188C54.0914 32.9367 53.9555 33.075 53.6812 32.993C52.2355 32.1607 50.5914 31.7355 48.9234 31.7625L48.9305 31.7578ZM25.4133 35.0109C26.0414 35.0648 26.5336 35.0648 27.6281 35.0648C30.8273 35.0648 33.8344 33.9445 33.8344 29.5969C33.8344 26.1234 31.6734 24.375 28.0383 24.375C26.9438 24.375 25.9055 24.4289 25.4133 24.457V35.0109ZM20.5453 20.4797C20.5453 20.2875 20.9273 20.1516 21.1477 20.1516C23.498 20.0555 25.8501 20.0102 28.2023 20.0156C35.7773 20.0156 38.7305 24.1711 38.7305 29.4773C38.7305 36.4219 33.6984 39.4031 27.5203 39.4031C26.482 39.4031 26.1258 39.3492 25.3875 39.3492V49.8492C25.3875 50.0672 25.3055 50.1773 25.0594 50.1773H20.8758C20.6578 50.1773 20.5477 50.0953 20.5477 49.8492V20.4914L20.5453 20.4797Z" fill="#31C5F0"/>
</svg>
