<svg width="70" height="70" viewBox="0 0 70 70" fill="none" xmlns="http://www.w3.org/2000/svg">
<path d="M23.3334 58.3334H46.6667M5.83337 17.5C5.83337 15.9529 6.44796 14.4692 7.54192 13.3752C8.63588 12.2813 10.1196 11.6667 11.6667 11.6667H58.3334C59.8805 11.6667 61.3642 12.2813 62.4582 13.3752C63.5521 14.4692 64.1667 15.9529 64.1667 17.5V43.75C64.1667 45.2971 63.5521 46.7808 62.4582 47.8748C61.3642 48.9688 59.8805 49.5834 58.3334 49.5834H11.6667C10.1196 49.5834 8.63588 48.9688 7.54192 47.8748C6.44796 46.7808 5.83337 45.2971 5.83337 43.75V17.5Z" stroke="#FFC727" stroke-width="5.91667" stroke-linecap="round" stroke-linejoin="round"/>
<path d="M34.5 34.6666C36.798 34.6666 38.6667 32.7979 38.6667 30.5C38.6667 28.2021 36.798 26.3333 34.5 26.3333C32.2021 26.3333 30.3334 28.2021 30.3334 30.5C30.3334 32.7979 32.2021 34.6666 34.5 34.6666ZM34.5 28.4166C35.6292 28.4166 36.5834 29.3708 36.5834 30.5C36.5834 31.6291 35.6292 32.5833 34.5 32.5833C33.3709 32.5833 32.4167 31.6291 32.4167 30.5C32.4167 29.3708 33.3709 28.4166 34.5 28.4166Z" fill="#FFC727"/>
<path d="M24.9636 34.8083L26.0052 36.6104C26.5584 37.5656 27.8896 37.9239 28.849 37.3708L29.4 37.0521C30.0027 37.5261 30.6671 37.9158 31.375 38.2104V38.8333C31.375 39.9823 32.3094 40.9166 33.4584 40.9166H35.5417C36.6906 40.9166 37.625 39.9823 37.625 38.8333V38.2104C38.3327 37.9158 38.9971 37.5265 39.6 37.0531L40.1511 37.3719C41.1125 37.9239 42.4406 37.5677 42.9958 36.6104L44.0365 34.8094C44.3125 34.3309 44.3874 33.7625 44.2446 33.2289C44.1019 32.6953 43.7531 32.2402 43.275 31.9635L42.749 31.6594C42.8608 30.8912 42.8608 30.1109 42.749 29.3427L43.275 29.0385C43.7529 28.7617 44.1015 28.3066 44.2442 27.7731C44.387 27.2395 44.3123 26.6712 44.0365 26.1927L42.9958 24.3916C42.4427 23.4333 41.1125 23.0739 40.1511 23.6291L39.6 23.9479C38.9974 23.4738 38.3329 23.0841 37.625 22.7896V22.1666C37.625 21.0177 36.6906 20.0833 35.5417 20.0833H33.4584C32.3094 20.0833 31.375 21.0177 31.375 22.1666V22.7896C30.6674 23.0842 30.003 23.4735 29.4 23.9469L28.849 23.6281C27.8865 23.075 26.5573 23.4333 26.0042 24.3906L24.9636 26.1916C24.6875 26.6701 24.6126 27.2385 24.7554 27.7721C24.8982 28.3057 25.2469 28.7608 25.725 29.0375L26.2511 29.3416C26.1388 30.1094 26.1388 30.8895 26.2511 31.6573L25.725 31.9614C25.2471 32.2385 24.8985 32.6938 24.7557 33.2275C24.613 33.7611 24.6877 34.3297 24.9636 34.8083ZM28.4281 31.9354C28.3105 31.466 28.2507 30.9839 28.25 30.5C28.25 30.0187 28.3104 29.5354 28.4271 29.0646C28.482 28.8451 28.464 28.6137 28.3756 28.4055C28.2873 28.1972 28.1335 28.0234 27.9375 27.9104L26.7677 27.2333L27.8073 25.4323L29 26.1219C29.1945 26.2344 29.4203 26.2808 29.6434 26.2542C29.8666 26.2275 30.075 26.1292 30.2375 25.9739C30.9422 25.3037 31.792 24.805 32.7209 24.5166C32.9342 24.4515 33.121 24.3196 33.2538 24.1403C33.3865 23.9611 33.4583 23.7439 33.4584 23.5208V22.1666H35.5417V23.5208C35.5418 23.7439 35.6135 23.9611 35.7463 24.1403C35.879 24.3196 36.0658 24.4515 36.2792 24.5166C37.2078 24.8054 38.0575 25.304 38.7625 25.9739C38.9252 26.1289 39.1336 26.227 39.3567 26.2536C39.5797 26.2803 39.8054 26.2341 40 26.1219L41.1917 25.4333L42.2333 27.2344L41.0625 27.9104C40.8667 28.0235 40.713 28.1974 40.6246 28.4056C40.5363 28.6138 40.5182 28.8451 40.5729 29.0646C40.6896 29.5354 40.75 30.0187 40.75 30.5C40.75 30.9802 40.6896 31.4635 40.5719 31.9354C40.5172 32.155 40.5355 32.3864 40.6241 32.5946C40.7126 32.8028 40.8665 32.9766 41.0625 33.0896L42.2323 33.7656L41.1927 35.5666L40 34.8781C39.8056 34.7654 39.5798 34.7189 39.3566 34.7455C39.1334 34.7722 38.9249 34.8706 38.7625 35.026C38.0578 35.6963 37.208 36.195 36.2792 36.4833C36.0658 36.5485 35.879 36.6804 35.7463 36.8596C35.6135 37.0389 35.5418 37.2561 35.5417 37.4791L35.5438 38.8333H33.4584V37.4791C33.4583 37.2561 33.3865 37.0389 33.2538 36.8596C33.121 36.6804 32.9342 36.5485 32.7209 36.4833C31.7922 36.1946 30.9425 35.6959 30.2375 35.026C30.0753 34.8702 29.8667 34.7716 29.6434 34.745C29.4201 34.7185 29.1942 34.7656 29 34.8791L27.8084 35.5687L26.7667 33.7677L27.9375 33.0896C28.1336 32.9766 28.2875 32.8028 28.376 32.5946C28.4645 32.3864 28.4828 32.155 28.4281 31.9354Z" fill="#FFC727"/>
</svg>
