<svg width="84" height="75" viewBox="0 0 84 75" fill="none" xmlns="http://www.w3.org/2000/svg">
<rect x="23" y="18" width="42" height="41" fill="white"/>
<path d="M48.2012 29.502C48.2012 26.2646 45.9465 24.4775 41.9863 24.4775H34.702V34.9072H40.8445C45.5852 34.8926 48.2012 32.959 48.2012 29.502ZM74.7227 27.627C73.3496 23.1006 73.1473 17.5488 73.3063 13.2568C73.4652 8.78906 70.0254 4.6875 65.4004 4.6875H17.8785C13.2391 4.6875 9.81367 8.80371 9.97266 13.2568C10.1172 17.5488 9.9293 23.1006 8.55625 27.627C7.16875 32.168 4.8418 35.0391 1.01172 35.4053V39.5801C4.82734 39.9463 7.16875 42.8174 8.55625 47.3584C9.9293 51.8848 10.1316 57.4365 9.97266 61.7285C9.81367 66.1963 13.2535 70.2979 17.8785 70.2979H65.3859C70.0254 70.2979 73.4508 66.1816 73.2918 61.7285C73.1473 57.4365 73.3352 51.8848 74.7082 47.3584C76.0957 42.8174 78.4227 39.9463 82.2383 39.5801V35.4053C78.4371 35.0391 76.0957 32.168 74.7227 27.627ZM43.3883 54.9463H29.2387V20.0391H43.316C49.5742 20.0391 53.6789 23.4668 53.6789 28.7402C53.6789 32.4463 50.9184 35.7568 47.3918 36.3281V36.5186C52.1902 37.0459 55.4133 40.415 55.4133 45.0586C55.4133 51.2256 50.8895 54.9463 43.3883 54.9463ZM41.943 39.0234H34.702V50.5078H42.2609C47.2039 50.5078 49.8199 48.501 49.8199 44.7217C49.8199 40.957 47.1316 39.0234 41.943 39.0234Z" fill="#6D11EE"/>
</svg>
