<svg width="40" height="40" viewBox="0 0 40 40" fill="none" xmlns="http://www.w3.org/2000/svg">
<path d="M27.6166 36.6667C28.0593 36.6692 28.498 36.5836 28.9072 36.4147C29.3164 36.2459 29.6879 35.9973 30 35.6833L34.5166 31.1667C34.8271 30.8544 35.0013 30.432 35.0013 29.9917C35.0013 29.5513 34.8271 29.1289 34.5166 28.8167L27.85 22.15C27.5377 21.8396 27.1153 21.6653 26.675 21.6653C26.2347 21.6653 25.8122 21.8396 25.5 22.15L22.8333 24.8C20.9871 24.3077 19.2772 23.4015 17.8333 22.15C16.5852 20.7038 15.6794 18.9947 15.1833 17.15L17.8333 14.4833C18.1437 14.1711 18.318 13.7486 18.318 13.3083C18.318 12.868 18.1437 12.4456 17.8333 12.1333L11.1666 5.46666C10.8544 5.15624 10.432 4.982 9.99164 4.982C9.55133 4.982 9.12891 5.15624 8.81664 5.46666L4.31664 9.99999C4.00269 10.3121 3.75405 10.6835 3.58522 11.0927C3.41639 11.5019 3.33075 11.9407 3.33331 12.3833C3.48451 18.7871 6.04343 24.8988 10.5 29.5C15.1012 33.9565 21.2128 36.5155 27.6166 36.6667ZM9.99997 9.01666L14.3166 13.3333L12.1666 15.4833C11.963 15.6741 11.8105 15.9129 11.7232 16.1779C11.6358 16.4429 11.6164 16.7255 11.6666 17C12.2896 19.7839 13.6085 22.3644 15.5 24.5C17.6339 26.3939 20.215 27.7131 23 28.3333C23.2703 28.3898 23.5504 28.3783 23.8151 28.2997C24.0798 28.2212 24.3209 28.0781 24.5166 27.8833L26.6666 25.6833L30.9833 30L27.65 33.3333C22.1229 33.191 16.8491 30.9852 12.8666 27.15C9.02149 23.1658 6.80932 17.8852 6.66664 12.35L9.99997 9.01666ZM33.3333 18.3333H36.6666C36.7099 16.3517 36.3514 14.3818 35.6129 12.5423C34.8744 10.7029 33.7711 9.03207 32.3695 7.63048C30.9679 6.2289 29.297 5.1256 27.4576 4.38708C25.6182 3.64856 23.6483 3.29011 21.6666 3.33333V6.66666C23.2131 6.61316 24.7541 6.87834 26.1938 7.44571C27.6335 8.01309 28.941 8.87052 30.0352 9.96473C31.1294 11.0589 31.9869 12.3665 32.5542 13.8062C33.1216 15.2458 33.3868 16.7868 33.3333 18.3333Z" fill="white"/>
<path d="M21.6666 13.3333C25.1666 13.3333 26.6666 14.8333 26.6666 18.3333H30C30 12.9667 27.0333 10 21.6666 10V13.3333Z" fill="white"/>
</svg>
