<svg width="40" height="40" viewBox="0 0 40 40" fill="none" xmlns="http://www.w3.org/2000/svg">
<path d="M36.3967 14.075C36.3967 14.0733 36.3951 14.0733 36.3967 14.075L36.3917 14.0683L36.39 14.0667V14.065C36.2868 13.913 36.1535 13.7837 35.9984 13.685L20.725 3.55167C20.5016 3.4089 20.2419 3.33304 19.9767 3.33304C19.7115 3.33304 19.4519 3.4089 19.2284 3.55167L3.95171 13.69C3.75882 13.8099 3.6004 13.9778 3.49199 14.1774C3.38359 14.377 3.32893 14.6013 3.33338 14.8283V25.095C3.32919 25.3602 3.4053 25.6205 3.55171 25.8417V25.8433L3.55505 25.8467L3.57171 25.8717V25.875H3.57338L3.57505 25.8767L3.57671 25.8783C3.68171 26.025 3.81005 26.145 3.95338 26.2367L19.2284 36.3733C19.4479 36.5247 19.7084 36.6055 19.975 36.605C20.2429 36.6065 20.5047 36.5256 20.725 36.3733L36 26.2367C36.1925 26.1155 36.3505 25.9469 36.4589 25.7469C36.5672 25.5469 36.6221 25.3224 36.6184 25.095V14.8283C36.6225 14.5606 36.5452 14.2979 36.3967 14.075ZM21.3017 7.12167L32.89 14.81L27.5851 18.33L21.3 14.1033V7.12167H21.3017ZM18.6484 7.12167V14.1033L12.3634 18.33L7.06171 14.8117L18.6484 7.12167ZM5.99005 17.285L9.98171 19.935L5.99005 22.62V17.285ZM18.6484 32.8033L7.04838 25.1083L12.3734 21.525L18.6484 25.6883V32.8033ZM19.9734 23.3817L14.76 19.9183L19.9734 16.41L25.1917 19.9183L19.9734 23.3817ZM21.3017 32.8033V25.6867L27.5784 21.5233L32.9 25.1067L21.3017 32.8033ZM33.9634 22.62L29.97 19.935L33.9634 17.285V22.62Z" fill="#FFC727"/>
</svg>
