<svg width="70" height="70" viewBox="0 0 70 70" fill="none" xmlns="http://www.w3.org/2000/svg">
<path d="M21.5104 48.9446L25.1563 44.3888L13.4196 35L25.1563 25.6113L21.5104 21.0554L6.92709 32.7221C6.58539 32.9954 6.30954 33.342 6.11997 33.7363C5.9304 34.1306 5.83197 34.5625 5.83197 35C5.83197 35.4375 5.9304 35.8695 6.11997 36.2638C6.30954 36.6581 6.58539 37.0047 6.92709 37.2779L21.5104 48.9446ZM48.4896 21.0554L44.8438 25.6113L56.5804 35L44.8438 44.3888L48.4896 48.9446L63.0729 37.2779C63.4146 37.0047 63.6905 36.6581 63.88 36.2638C64.0696 35.8695 64.168 35.4375 64.168 35C64.168 34.5625 64.0696 34.1306 63.88 33.7363C63.6905 33.342 63.4146 32.9954 63.0729 32.7221L48.4896 21.0554ZM43.68 9.38003L32.0133 61.88L26.3171 60.6142L37.9838 8.1142L43.68 9.38003Z" fill="#FFC727"/>
</svg>
