<svg width="40" height="40" viewBox="0 0 40 40" fill="none" xmlns="http://www.w3.org/2000/svg">
<path d="M12.2916 27.9683L14.375 25.365L7.6683 20L14.375 14.635L12.2916 12.0317L3.9583 18.6983C3.76304 18.8545 3.60541 19.0525 3.49709 19.2779C3.38876 19.5032 3.33252 19.75 3.33252 20C3.33252 20.25 3.38876 20.4968 3.49709 20.7221C3.60541 20.9475 3.76304 21.1455 3.9583 21.3017L12.2916 27.9683ZM27.7083 12.0317L25.625 14.635L32.3316 20L25.625 25.365L27.7083 27.9683L36.0416 21.3017C36.2369 21.1455 36.3945 20.9475 36.5028 20.7221C36.6112 20.4968 36.6674 20.25 36.6674 20C36.6674 19.75 36.6112 19.5032 36.5028 19.2779C36.3945 19.0525 36.2369 18.8545 36.0416 18.6983L27.7083 12.0317ZM24.96 5.35999L18.2933 35.36L15.0383 34.6367L21.705 4.63666L24.96 5.35999Z" fill="white"/>
</svg>