<svg width="70" height="70" viewBox="0 0 70 70" fill="none" xmlns="http://www.w3.org/2000/svg">
<path d="M61.1625 21.2042C61.4329 20.9344 61.6474 20.6138 61.7938 20.261C61.9401 19.9082 62.0155 19.5299 62.0155 19.1479C62.0155 18.7659 61.9401 18.3877 61.7938 18.0349C61.6474 17.682 61.4329 17.3615 61.1625 17.0917L52.9083 8.83752C52.6385 8.56713 52.318 8.35262 51.9651 8.20626C51.6123 8.0599 51.2341 7.98456 50.8521 7.98456C50.4701 7.98456 50.0918 8.0599 49.739 8.20626C49.3862 8.35262 49.0657 8.56713 48.7958 8.83752L35.7 21.9334L24.3542 10.5875C22.0792 8.31252 18.375 8.31252 16.1 10.5875L10.5583 16.1292C8.28333 18.4042 8.28333 22.1084 10.5583 24.3834L21.9042 35.7292L8.75 48.8834V61.25H21.1167L34.3 48.0667L45.6458 59.4125C48.4167 62.1833 52.15 61.1625 53.9 59.4125L59.4417 53.8708C61.7167 51.5958 61.7167 47.8917 59.4417 45.6167L48.0958 34.2709L61.1625 21.2042ZM14.7 20.2417L20.2125 14.7L23.9167 18.4042L20.475 21.875L24.5875 25.9875L28.0583 22.5167L31.5583 26.0167L26.0167 31.5583L14.7 20.2417ZM47.4542 41.9417L43.9833 45.4125L48.0958 49.525L51.5667 46.0542L55.2708 49.7583L49.7292 55.3L38.3833 43.9542L43.925 38.4125L47.4542 41.9417ZM18.6958 55.4167H14.5833V51.3042L42.6125 23.275L46.4042 27.0667L46.725 27.3875L18.6958 55.4167ZM46.725 19.1334L50.8375 15.0209L54.95 19.1334L50.8375 23.2459L46.725 19.1334Z" fill="#FFC727"/>
</svg>
