<svg width="50" height="75" viewBox="0 0 50 75" fill="none" xmlns="http://www.w3.org/2000/svg">
<g clip-path="url(#clip0_111_1556)">
<path d="M12.5025 75C19.4011 75 25 69.4 25 62.5V50H12.5025C5.60389 50 0.00500488 55.6 0.00500488 62.5C0.00500488 69.4 5.60389 75 12.5025 75Z" fill="#0ACF83"/>
<path d="M0.00500488 37.5C0.00500488 30.6 5.60389 25 12.5025 25H25V50H12.5025C5.60389 50 0.00500488 44.4 0.00500488 37.5Z" fill="#A259FF"/>
<path d="M0.00500488 12.5C0.00500488 5.6 5.60389 0 12.5025 0H25V25H12.5025C5.60389 25 0.00500488 19.4 0.00500488 12.5Z" fill="#F24E1E"/>
<path d="M25 0H37.4975C44.3961 0 49.995 5.6 49.995 12.5C49.995 19.4 44.3961 25 37.4975 25H25V0Z" fill="#FF7262"/>
<path d="M49.995 37.5C49.995 44.4 44.3961 50 37.4975 50C30.5989 50 25 44.4 25 37.5C25 30.6 30.5989 25 37.4975 25C44.3961 25 49.995 30.6 49.995 37.5Z" fill="#1ABCFE"/>
</g>
<defs>
<clipPath id="clip0_111_1556">
<rect width="50" height="75" fill="white"/>
</clipPath>
</defs>
</svg>
