<svg width="178" height="75" viewBox="0 0 178 75" fill="none" xmlns="http://www.w3.org/2000/svg">
<g clip-path="url(#clip0_111_1568)">
<path d="M106.24 25.8431C102.353 25.8431 99.4588 27.7514 99.4588 32.3445C99.4588 35.8049 101.366 38.2077 106.03 38.2077C109.984 38.2077 112.669 35.8778 112.669 32.2007C112.669 28.034 110.266 25.8431 106.24 25.8431ZM98.4692 58.2743C97.5491 59.4028 96.6324 60.6028 96.6324 62.0174C96.6324 64.8417 100.234 65.6917 105.181 65.6917C109.278 65.6917 114.86 65.4042 114.86 61.5945C114.86 59.3299 112.175 59.1903 108.782 58.9778L98.4692 58.2743ZM119.381 26.0563C120.65 27.6813 121.995 29.9431 121.995 33.1924C121.995 41.034 115.848 45.6257 106.948 45.6257C104.685 45.6257 102.637 45.3438 101.366 44.991L99.0338 48.734L105.957 49.1577C118.18 49.9368 125.384 50.291 125.384 59.6834C125.384 67.8097 118.25 72.3993 105.957 72.3993C93.1699 72.3993 88.2949 69.1493 88.2949 63.5688C88.2949 60.3896 89.7081 58.6972 92.181 56.3618C89.8491 55.3764 89.0727 53.6111 89.0727 51.7021C89.0727 50.1465 89.8491 48.7347 91.1227 47.391C92.3935 46.0507 93.806 44.707 95.5019 43.1528C92.0408 41.457 89.4255 37.7833 89.4255 32.5542C89.4255 24.4313 94.7956 18.8521 105.603 18.8521C108.641 18.8521 110.479 19.1313 112.104 19.5584H125.882V25.5611L119.381 26.0563ZM138.311 13.2181C134.283 13.2181 131.952 10.8847 131.952 6.85627C131.952 2.83335 134.282 0.640991 138.311 0.640991C142.408 0.640991 144.74 2.83335 144.74 6.85627C144.74 10.8847 142.409 13.2181 138.311 13.2181ZM129.196 55.6743V50.0959L132.8 49.6028C133.789 49.4604 133.93 49.2493 133.93 48.1875V27.4167C133.93 26.6417 133.719 26.1445 133.01 25.9347L129.196 24.591L129.972 18.8702H144.598V48.1875C144.598 49.3195 144.666 49.4604 145.729 49.6035L149.332 50.0965V55.6743H129.196ZM177.27 52.9354C174.231 54.4181 169.78 55.7604 165.752 55.7604C157.345 55.7604 154.167 52.3729 154.167 44.3854V25.8778C154.167 25.4542 154.167 25.1715 153.6 25.1715H148.655V18.882C154.874 18.1736 157.345 15.0653 158.122 7.3646H164.835V17.3993C164.835 17.8924 164.835 18.1056 165.4 18.1056H175.361V25.1702H164.835V42.0542C164.835 46.2222 165.825 47.8459 169.638 47.8459C171.619 47.8459 173.665 47.3528 175.36 46.7167L177.27 52.9347" fill="white"/>
<path d="M72.5906 34.3959L40.2879 2.09517C39.8455 1.65265 39.3203 1.30161 38.7422 1.06211C38.1641 0.822611 37.5445 0.699341 36.9188 0.699341C36.293 0.699341 35.6735 0.822611 35.0954 1.06211C34.5173 1.30161 33.9921 1.65265 33.5497 2.09517L26.842 8.8035L35.3511 17.3118C36.3513 16.9717 37.4267 16.9184 38.4556 17.1581C39.4845 17.3979 40.4257 17.9209 41.1726 18.6681C41.9235 19.42 42.4477 20.3679 42.6855 21.4036C42.9232 22.4393 42.8649 23.5209 42.517 24.525L50.7163 32.7257C52.7004 32.0424 54.99 32.4848 56.574 34.0716C57.1006 34.5979 57.5184 35.2228 57.8034 35.9106C58.0885 36.5984 58.2352 37.3357 58.2352 38.0802C58.2352 38.8248 58.0885 39.562 57.8034 40.2499C57.5184 40.9377 57.1006 41.5626 56.574 42.0889C55.6474 43.0163 54.4281 43.594 53.1236 43.7236C51.819 43.8532 50.5099 43.5266 49.419 42.7996C48.3281 42.0726 47.5229 40.9899 47.1404 39.736C46.7579 38.4821 46.8218 37.1344 47.3212 35.9223L39.674 28.275L39.6733 48.4C40.2277 48.6742 40.734 49.0362 41.1726 49.4723C41.6992 49.9987 42.1169 50.6238 42.4019 51.3117C42.6869 51.9996 42.8336 52.737 42.8336 53.4816C42.8336 54.2263 42.6869 54.9636 42.4019 55.6515C42.1169 56.3395 41.6992 56.9645 41.1726 57.491C38.9573 59.7063 35.367 59.7063 33.1552 57.491C32.4945 56.8307 32.0071 56.0174 31.7364 55.1233C31.4658 54.2292 31.4202 53.2821 31.6038 52.3662C31.7875 51.4503 32.1946 50.5939 32.7889 49.8733C33.3833 49.1526 34.1465 48.59 35.0108 48.2354V27.9229C34.3156 27.639 33.6845 27.2182 33.1552 26.6854C31.4775 25.0098 31.074 22.5479 31.9337 20.4875L23.5462 12.0986L1.3976 34.2459C0.955008 34.6884 0.603927 35.2138 0.364399 35.7921C0.124871 36.3703 0.00158691 36.9901 0.00158691 37.616C0.00158691 38.2419 0.124871 38.8617 0.364399 39.4399C0.603927 40.0182 0.955008 40.5436 1.3976 40.9861L33.7004 73.2875C34.594 74.1809 35.8059 74.6828 37.0695 74.6828C38.3331 74.6828 39.5449 74.1809 40.4386 73.2875L72.5906 41.1368C73.4842 40.2427 73.9861 39.0304 73.9861 37.7663C73.9861 36.5023 73.4842 35.29 72.5906 34.3959Z" fill="#DE4C36"/>
</g>
<defs>
<clipPath id="clip0_111_1568">
<rect width="177.78" height="75" fill="white"/>
</clipPath>
</defs>
</svg>
