<svg width="40" height="40" viewBox="0 0 40 40" fill="none" xmlns="http://www.w3.org/2000/svg">
<path d="M27.0666 36.6667C26.6246 36.6667 26.2007 36.4911 25.8881 36.1785C25.5755 35.8659 25.3999 35.442 25.3999 35V30.6667C25.4517 30.1682 25.3984 29.6644 25.2434 29.1879C25.0883 28.7113 24.8351 28.2726 24.4999 27.9C24.2924 27.6749 24.1509 27.3971 24.0909 27.097C24.0309 26.7968 24.0547 26.4859 24.1597 26.1984C24.2648 25.9109 24.4469 25.6578 24.6863 25.467C24.9256 25.2762 25.2129 25.155 25.5166 25.1167C29.5833 24.6333 33.3333 23.3333 33.3333 16.2833C33.3346 14.9668 32.946 13.6793 32.2166 12.5833C31.5435 11.5744 31.2978 10.3398 31.5333 9.14999C31.6835 8.37386 31.6835 7.57612 31.5333 6.79999C30.2853 7.22195 29.1102 7.83478 28.0499 8.61666C27.8495 8.75901 27.62 8.85525 27.3779 8.89848C27.1359 8.9417 26.8873 8.93083 26.6499 8.86666C23.6422 8.01675 20.4577 8.01675 17.4499 8.86666C17.2126 8.93083 16.964 8.9417 16.7219 8.89848C16.4799 8.85525 16.2504 8.75901 16.0499 8.61666C14.9832 7.82572 13.7957 7.21227 12.5333 6.79999C12.3748 7.57531 12.3748 8.37467 12.5333 9.14999C12.7518 10.3547 12.4949 11.5973 11.8166 12.6167C11.0904 13.7204 10.7023 15.0121 10.6999 16.3333C10.6999 22.8167 13.8333 24.55 18.5333 25.15C18.8408 25.1882 19.1316 25.3113 19.3731 25.5056C19.6145 25.6999 19.7969 25.9577 19.8999 26.25C19.9968 26.5336 20.0155 26.8381 19.9539 27.1314C19.8923 27.4247 19.7527 27.696 19.5499 27.9167C19.2258 28.2632 18.977 28.6731 18.8192 29.1206C18.6614 29.5681 18.5981 30.0435 18.6333 30.5167V35C18.6333 35.442 18.4577 35.8659 18.1451 36.1785C17.8326 36.4911 17.4086 36.6667 16.9666 36.6667C16.5246 36.6667 16.1007 36.4911 15.7881 36.1785C15.4755 35.8659 15.2999 35.442 15.2999 35V34.05C13.6622 34.2383 12.0033 34.0189 10.4709 33.4111C8.9385 32.8034 7.5801 31.8263 6.51661 30.5667C5.96995 29.9607 5.31408 29.4632 4.58328 29.1C4.37097 29.0453 4.17152 28.9493 3.99632 28.8175C3.82112 28.6857 3.67359 28.5207 3.56216 28.3319C3.45073 28.143 3.37758 27.9341 3.34689 27.717C3.31619 27.5 3.32856 27.279 3.38328 27.0667C3.43799 26.8544 3.53399 26.6549 3.66579 26.4797C3.79759 26.3045 3.9626 26.157 4.15141 26.0455C4.34023 25.9341 4.54914 25.861 4.76622 25.8303C4.9833 25.7996 5.20431 25.8119 5.41661 25.8667C6.69869 26.3337 7.84427 27.1127 8.74994 28.1333C10.4166 29.8 12.0833 31.2667 15.2499 30.6667C15.1943 29.7718 15.3248 28.8752 15.6333 28.0333C12.1999 27.1667 7.29994 24.7 7.29994 16.3667C7.29555 14.3927 7.87546 12.4616 8.96661 10.8167C9.16928 10.513 9.2469 10.1428 9.18328 9.78332C8.84649 7.98428 9.03751 6.12622 9.73328 4.43332C9.82781 4.2076 9.9709 4.00546 10.1524 3.84127C10.3338 3.67708 10.5492 3.55487 10.7833 3.48332C11.3499 3.31666 13.3833 2.98332 17.2333 5.48332C20.3499 4.73333 23.6 4.73333 26.7166 5.48332C30.5666 2.98332 32.5999 3.29999 33.1499 3.48332C33.384 3.55487 33.5994 3.67708 33.7808 3.84127C33.9623 4.00546 34.1054 4.2076 34.1999 4.43332C34.8971 6.13171 35.0881 7.9955 34.7499 9.79999C34.7158 9.96258 34.7145 10.1303 34.746 10.2934C34.7774 10.4566 34.8411 10.6118 34.9333 10.75C36.0276 12.3997 36.6076 14.337 36.5999 16.3167C36.5999 24.7667 31.7333 27.2167 28.2666 27.9833C28.572 28.8777 28.6966 29.8237 28.6333 30.7667V35C28.634 35.4252 28.4722 35.8347 28.181 36.1445C27.8897 36.4543 27.4911 36.6411 27.0666 36.6667Z" fill="#FFC727"/>
</svg>