<svg width="40" height="40" viewBox="0 0 40 40" fill="none" xmlns="http://www.w3.org/2000/svg">
<path d="M37.2343 23.8281L32.9687 7.81251C32.8688 7.42476 32.6473 7.07918 32.3368 6.82638C32.0263 6.57358 31.643 6.42683 31.243 6.40762C30.8431 6.3884 30.4474 6.49774 30.1141 6.71961C29.7808 6.94149 29.5272 7.26425 29.3906 7.64064L26.1718 16.25H13.8281L10.6094 7.64064C10.4727 7.26425 10.2192 6.94149 9.88583 6.71961C9.5525 6.49774 9.15689 6.3884 8.75693 6.40762C8.35697 6.42683 7.97366 6.57358 7.66313 6.82638C7.3526 7.07918 7.13116 7.42476 7.03123 7.81251L2.7656 23.8281C2.63524 24.3269 2.66125 24.8536 2.84011 25.3371C3.01897 25.8206 3.34204 26.2374 3.7656 26.5313L18.5781 36.7813C18.9072 37.0117 19.2884 37.1567 19.6875 37.2031H20.3125C20.7115 37.1567 21.0928 37.0117 21.4219 36.7813L36.2343 26.5313C36.6579 26.2374 36.981 25.8206 37.1598 25.3371C37.3387 24.8536 37.3647 24.3269 37.2343 23.8281ZM31.0468 10.3438L32.625 16.25H28.8281L31.0468 10.3438ZM25.2343 18.75L20 32.6875L14.7656 18.75H25.2343ZM8.9531 10.3438L11.1719 16.25H7.37498L8.9531 10.3438ZM6.7031 18.75H12.1094L17.4219 32.9531L5.18748 24.4688L6.7031 18.75ZM22.5781 32.9531L27.8906 18.75H33.2969L34.8125 24.4688L22.5781 32.9531Z" fill="white"/>
</svg>
