<svg width="40" height="40" viewBox="0 0 40 40" fill="none" xmlns="http://www.w3.org/2000/svg">
<path d="M19.9983 12.295C17.9544 12.295 15.9941 13.107 14.5489 14.5522C13.1036 15.9975 12.2916 17.9577 12.2916 20.0017C12.2916 22.0456 13.1036 24.0058 14.5489 25.4511C15.9941 26.8964 17.9544 27.7083 19.9983 27.7083C22.0422 27.7083 24.0024 26.8964 25.4477 25.4511C26.893 24.0058 27.705 22.0456 27.705 20.0017C27.705 17.9577 26.893 15.9975 25.4477 14.5522C24.0024 13.107 22.0422 12.295 19.9983 12.295ZM19.9983 25.0067C18.6704 25.0067 17.397 24.4792 16.458 23.5403C15.5191 22.6013 14.9916 21.3279 14.9916 20C14.9916 18.6722 15.5191 17.3987 16.458 16.4598C17.397 15.5208 18.6704 14.9933 19.9983 14.9933C21.3261 14.9933 22.5996 15.5208 23.5385 16.4598C24.4775 17.3987 25.005 18.6722 25.005 20C25.005 21.3279 24.4775 22.6013 23.5385 23.5403C22.5996 24.4792 21.3261 25.0067 19.9983 25.0067Z" fill="white"/>
<path d="M28.01 13.8083C29.0023 13.8083 29.8067 13.0039 29.8067 12.0117C29.8067 11.0194 29.0023 10.215 28.01 10.215C27.0178 10.215 26.2134 11.0194 26.2134 12.0117C26.2134 13.0039 27.0178 13.8083 28.01 13.8083Z" fill="white"/>
<path d="M34.2216 10.185C33.8358 9.18863 33.2462 8.2838 32.4905 7.52843C31.7349 6.77306 30.8298 6.18378 29.8333 5.79833C28.6672 5.36059 27.4353 5.1239 26.19 5.09833C24.585 5.02833 24.0766 5.00833 20.0066 5.00833C15.9366 5.00833 15.415 5.00833 13.8233 5.09833C12.5789 5.12259 11.3479 5.35933 10.1833 5.79833C9.18652 6.18333 8.28124 6.77245 7.52552 7.52788C6.7698 8.28331 6.18034 9.18837 5.79496 10.185C5.35714 11.351 5.12099 12.5831 5.09663 13.8283C5.02496 15.4317 5.0033 15.94 5.0033 20.0117C5.0033 24.0817 5.0033 24.6 5.09663 26.195C5.12163 27.4417 5.35663 28.6717 5.79496 29.84C6.18143 30.8363 6.77146 31.741 7.52736 32.4963C8.28326 33.2516 9.1884 33.841 10.185 34.2267C11.3474 34.682 12.5789 34.9356 13.8266 34.9767C15.4316 35.0467 15.94 35.0683 20.01 35.0683C24.08 35.0683 24.6016 35.0683 26.1933 34.9767C27.4385 34.9513 28.6703 34.7152 29.8366 34.2783C30.8329 33.892 31.7377 33.3022 32.4932 32.5466C33.2488 31.791 33.8386 30.8863 34.225 29.89C34.6633 28.7233 34.8983 27.4933 34.9233 26.2467C34.995 24.6433 35.0166 24.135 35.0166 20.0633C35.0166 15.9917 35.0166 15.475 34.9233 13.88C34.9039 12.6171 34.6665 11.3671 34.2216 10.185ZM32.1916 26.0717C32.1809 27.0322 32.0056 27.9837 31.6733 28.885C31.423 29.5331 31.0398 30.1217 30.5484 30.6128C30.057 31.1039 29.4682 31.4868 28.82 31.7367C27.9287 32.0674 26.9872 32.2427 26.0366 32.255C24.4533 32.3283 24.0066 32.3467 19.9466 32.3467C15.8833 32.3467 15.4683 32.3467 13.855 32.255C12.9048 32.2434 11.9638 32.068 11.0733 31.7367C10.4228 31.4883 9.83163 31.1062 9.33811 30.6149C8.84459 30.1237 8.45969 29.5344 8.2083 28.885C7.88071 27.9934 7.70548 27.0531 7.68996 26.1033C7.6183 24.52 7.60163 24.0733 7.60163 20.0133C7.60163 15.9517 7.60163 15.5367 7.68996 13.9217C7.70074 12.9617 7.87605 12.0107 8.2083 11.11C8.71663 9.795 9.7583 8.76 11.0733 8.25666C11.9643 7.9269 12.905 7.7516 13.855 7.73833C15.44 7.66666 15.885 7.64666 19.9466 7.64666C24.0083 7.64666 24.425 7.64666 26.0366 7.73833C26.9873 7.74977 27.9289 7.92512 28.82 8.25666C29.4682 8.50712 30.0569 8.89033 30.5482 9.38171C31.0396 9.8731 31.4228 10.4618 31.6733 11.11C32.0009 12.0016 32.1761 12.9419 32.1916 13.8917C32.2633 15.4767 32.2816 15.9217 32.2816 19.9833C32.2816 24.0433 32.2816 24.48 32.21 26.0733H32.1916V26.0717Z" fill="white"/>
</svg>
