<svg width="56" height="71" viewBox="0 0 56 71" fill="none" xmlns="http://www.w3.org/2000/svg">
<path d="M17.899 54.4973C17.899 54.4973 15.0381 56.061 19.935 56.5902C25.8676 57.2263 28.8995 57.1352 35.4373 55.972C35.4373 55.972 37.1562 56.985 39.5564 57.8626C24.9009 63.7666 6.38756 57.5205 17.899 54.4973ZM16.1081 46.7927C16.1081 46.7927 12.8993 49.0254 17.7999 49.5018C24.1372 50.1163 29.1418 50.1666 37.8019 48.5992C37.8019 48.5992 38.9998 49.7406 40.8832 50.3648C23.1635 55.2352 3.42701 50.7489 16.1081 46.7927Z" fill="#5382A1"/>
<path d="M31.2056 33.7234C34.8169 37.6313 30.2568 41.148 30.2568 41.148C30.2568 41.148 39.4261 36.6987 35.2151 31.127C31.2821 25.9315 28.2659 23.3496 44.594 14.4486C44.594 14.4486 18.9644 20.4653 31.2056 33.7232" fill="#E76F00"/>
<path d="M50.589 60.1958C50.589 60.1958 52.7061 61.8354 48.2573 63.1039C39.7979 65.5128 13.048 66.2402 5.61696 63.1999C2.94579 62.1078 7.95518 60.5919 9.53083 60.2736C11.1741 59.9387 12.1133 60.0012 12.1133 60.0012C9.14261 58.034 -7.08817 63.8637 3.86898 65.533C33.7504 70.088 58.3398 63.4821 50.589 60.1958ZM19.2745 38.81C19.2745 38.81 5.66811 41.8479 14.4563 42.9508C18.1669 43.4177 25.5639 43.3122 32.4542 42.7694C38.0852 42.3232 43.7395 41.3737 43.7395 41.3737C43.7395 41.3737 41.754 42.173 40.3175 43.095C26.5001 46.5108 -0.19251 44.9218 7.49196 41.4277C13.9907 38.475 19.2748 38.81 19.2748 38.81M43.6834 51.6343C57.7296 44.7737 51.2352 38.1808 46.7022 39.0691C45.5911 39.2863 45.0958 39.4746 45.0958 39.4746C45.0958 39.4746 45.5083 38.8674 46.296 38.6046C55.2635 35.6411 62.1602 47.3448 43.4011 51.9801C43.4011 51.9803 43.6185 51.7977 43.6834 51.6343Z" fill="#5382A1"/>
<path d="M35.2151 0.0758263C35.2151 0.0758263 42.9941 7.39039 27.8371 18.6375C15.683 27.6599 25.0656 32.8041 27.8321 38.6817C20.7375 32.665 15.5308 27.3683 19.024 22.4388C24.1506 15.2023 38.3536 11.694 35.2151 0.0756226" fill="#E76F00"/>
<path d="M20.6549 70.2249C34.1374 71.0362 54.8411 69.7748 55.3314 63.7783C55.3314 63.7783 54.3889 66.0517 44.1889 67.857C32.6814 69.8924 18.4886 69.6548 10.0706 68.3502C10.0708 68.3502 11.7939 69.6909 20.6552 70.2249" fill="#5382A1"/>
</svg>
