<svg width="75" height="75" viewBox="0 0 75 75" fill="none" xmlns="http://www.w3.org/2000/svg">
<g clip-path="url(#clip0_111_1533)">
<path d="M0 0H75V75H0V0Z" fill="#F7DF1E"/>
<path d="M19.7203 62.6754L25.4596 59.2019C26.567 61.1651 27.5742 62.8262 29.9903 62.8262C32.3063 62.8262 33.7667 61.9204 33.7667 58.3966V34.4323H40.8147V58.4962C40.8147 65.7961 36.5356 69.1189 30.2924 69.1189C24.6542 69.1189 21.3815 66.1989 19.72 62.6748M44.6429 61.9201L50.3816 58.5975C51.8924 61.0646 53.8559 62.8769 57.3293 62.8769C60.2499 62.8769 62.112 61.4168 62.112 59.4029C62.112 56.9865 60.1989 56.1304 56.9769 54.7213L55.2152 53.9654C50.1302 51.8012 46.7572 49.0825 46.7572 43.3432C46.7572 38.0569 50.7847 34.0292 57.0779 34.0292C61.5586 34.0292 64.7807 35.5901 67.0963 39.6679L61.6084 43.1924C60.3999 41.0276 59.0915 40.1718 57.0776 40.1718C55.0134 40.1718 53.7044 41.4808 53.7044 43.1924C53.7044 45.3067 55.0134 46.1631 58.0339 47.472L59.7958 48.227C65.787 50.7949 69.16 53.4126 69.16 59.3024C69.16 65.6464 64.176 69.1198 57.4802 69.1198C50.9356 69.1198 46.7066 65.9985 44.6426 61.9204" fill="black"/>
</g>
<defs>
<clipPath id="clip0_111_1533">
<rect width="75" height="75" rx="10" fill="white"/>
</clipPath>
</defs>
</svg>
