<svg width="73" height="75" viewBox="0 0 73 75" fill="none" xmlns="http://www.w3.org/2000/svg">
<g clip-path="url(#clip0_111_1546)">
<path d="M72.6901 16.9375C72.7171 17.0372 72.7311 17.1401 72.7311 17.2435V33.3139C72.7311 33.7338 72.5066 34.1216 72.1421 34.3304L58.6544 42.0966V57.4887C58.6544 57.6946 58.6003 57.897 58.4975 58.0754C58.3947 58.2539 58.2468 58.4022 58.0686 58.5054L29.9129 74.7137C29.8484 74.75 29.7782 74.7733 29.7078 74.7986C29.6813 74.8071 29.6566 74.8233 29.6288 74.8307C29.432 74.8825 29.225 74.8825 29.0282 74.8307C28.9958 74.8222 28.9666 74.8043 28.9359 74.7926C28.8714 74.7691 28.8041 74.7486 28.7427 74.7137L0.592705 58.5051C0.413824 58.4025 0.265188 58.2544 0.16179 58.076C0.0583922 57.8975 0.00389082 57.6949 0.00378418 57.4887L0.00378418 9.2773C0.00378418 9.17162 0.0185569 9.06906 0.0446933 8.96963C0.0535001 8.93582 0.0739546 8.90514 0.0858865 8.87134C0.107761 8.80997 0.1285 8.7469 0.160602 8.6898C0.182477 8.65173 0.21458 8.62105 0.241 8.58582C0.274807 8.53895 0.305489 8.49065 0.344977 8.44946C0.378784 8.41594 0.422818 8.39094 0.460886 8.36168C0.5035 8.32645 0.541284 8.28838 0.58958 8.26054H0.591L14.6666 0.156563C14.8448 0.0539871 15.0469 0 15.2525 0C15.4582 0 15.6602 0.0539871 15.8384 0.156563L29.914 8.26054H29.9169C29.9637 8.29009 30.0035 8.32645 30.0458 8.36026C30.0839 8.38952 30.1265 8.41594 30.16 8.44833C30.2012 8.49065 30.2305 8.53923 30.2654 8.58582C30.2904 8.62105 30.3242 8.65173 30.3447 8.6898C30.3782 8.74832 30.3972 8.80997 30.4208 8.87162C30.4325 8.90514 30.4529 8.93582 30.4617 8.97105C30.4887 9.07077 30.5026 9.17389 30.5029 9.2773V39.3892L42.2319 32.6355V17.2421C42.2319 17.1398 42.2467 17.0355 42.2731 16.9375C42.2833 16.9023 42.3024 16.8716 42.314 16.8381C42.3376 16.7764 42.358 16.7131 42.3901 16.6563C42.412 16.6182 42.4441 16.5875 42.4694 16.5523C42.5044 16.5054 42.5336 16.4571 42.5745 16.4159C42.6086 16.3824 42.6509 16.3574 42.689 16.3282C42.733 16.2929 42.7711 16.2549 42.818 16.227H42.8194L56.8964 8.12304C57.0746 8.02033 57.2767 7.96626 57.4823 7.96626C57.688 7.96626 57.8901 8.02033 58.0683 8.12304L72.1438 16.227C72.1936 16.2563 72.2316 16.2929 72.2757 16.3265C72.312 16.356 72.3546 16.3824 72.3884 16.4145C72.4294 16.4571 72.4586 16.5054 72.4936 16.5523C72.5203 16.5875 72.5524 16.6182 72.5731 16.6563C72.6066 16.7131 72.6257 16.7764 72.649 16.8381C72.6623 16.8716 72.6813 16.9023 72.6901 16.9375ZM70.3848 32.6358V19.2722L65.4589 22.1077L58.6541 26.0259V39.3895L70.3862 32.6358H70.3848ZM56.3092 56.8105V43.4375L49.6154 47.2605L30.5015 58.1696V71.6679L56.3092 56.81V56.8105ZM2.35009 11.3057V56.8105L28.1549 71.6668V58.1711L14.6742 50.5415L14.67 50.5387L14.6643 50.5358C14.6188 50.5094 14.5805 50.4713 14.5382 50.4392C14.5012 50.4097 14.4589 50.3864 14.4268 50.354L14.424 50.3497C14.3859 50.3131 14.3595 50.2676 14.3274 50.2267C14.2978 50.187 14.2629 50.1534 14.2393 50.1125L14.2379 50.108C14.2115 50.0642 14.1953 50.0114 14.1762 49.9617C14.1572 49.9176 14.1325 49.8764 14.1205 49.8299V49.8284C14.1061 49.7728 14.1032 49.714 14.0972 49.6568C14.0916 49.6131 14.0796 49.5691 14.0796 49.525V18.0597L7.27594 14.1398L2.35009 11.3074V11.3057ZM15.2541 2.52645L3.52623 9.2773L15.2512 16.0279L26.9774 9.2756L15.2512 2.52645H15.2541ZM21.3529 44.6566L28.1563 40.7401V11.3057L23.2311 14.1415L16.4257 18.0594V47.4935L21.3529 44.6566ZM57.4822 10.4929L45.7561 17.2435L57.4822 23.9943L69.2069 17.2421L57.4825 10.4929H57.4822ZM56.3089 26.0259L49.5041 22.1077L44.5785 19.2722V32.6358L51.3819 36.5526L56.3092 39.3895V26.0259H56.3089ZM29.3268 56.1412L46.5265 46.3219L55.1242 41.4151L43.4066 34.6688L29.9154 42.4358L17.6194 49.5148L29.3268 56.1412Z" fill="#FF2D20"/>
</g>
<defs>
<clipPath id="clip0_111_1546">
<rect width="72.735" height="75" fill="white"/>
</clipPath>
</defs>
</svg>
