<svg width="40" height="40" viewBox="0 0 40 40" fill="none" xmlns="http://www.w3.org/2000/svg">
<path d="M13.3334 33.3334H26.6667M3.33337 10C3.33337 9.11597 3.68456 8.26812 4.30968 7.643C4.93481 7.01788 5.78265 6.66669 6.66671 6.66669H33.3334C34.2174 6.66669 35.0653 7.01788 35.6904 7.643C36.3155 8.26812 36.6667 9.11597 36.6667 10V25C36.6667 25.8841 36.3155 26.7319 35.6904 27.357C35.0653 27.9822 34.2174 28.3334 33.3334 28.3334H6.66671C5.78265 28.3334 4.93481 27.9822 4.30968 27.357C3.68456 26.7319 3.33337 25.8841 3.33337 25V10Z" stroke="white" stroke-width="3.33333" stroke-linecap="round" stroke-linejoin="round"/>
<path d="M25.4688 13.625H17.4844C17.4242 13.625 17.375 13.6742 17.375 13.7344V14.5C17.375 14.5602 17.4242 14.6094 17.4844 14.6094H25.4688C25.5289 14.6094 25.5781 14.5602 25.5781 14.5V13.7344C25.5781 13.6742 25.5289 13.625 25.4688 13.625ZM25.4688 17.5078H17.4844C17.4242 17.5078 17.375 17.557 17.375 17.6172V18.3828C17.375 18.443 17.4242 18.4922 17.4844 18.4922H25.4688C25.5289 18.4922 25.5781 18.443 25.5781 18.3828V17.6172C25.5781 17.557 25.5289 17.5078 25.4688 17.5078ZM25.4688 21.3906H17.4844C17.4242 21.3906 17.375 21.4398 17.375 21.5V22.2656C17.375 22.3258 17.4242 22.375 17.4844 22.375H25.4688C25.5289 22.375 25.5781 22.3258 25.5781 22.2656V21.5C25.5781 21.4398 25.5289 21.3906 25.4688 21.3906ZM14.4219 14.1172C14.4219 14.2177 14.4417 14.3173 14.4802 14.4102C14.5186 14.5031 14.575 14.5875 14.6461 14.6586C14.7172 14.7297 14.8016 14.7861 14.8945 14.8245C14.9874 14.863 15.087 14.8828 15.1875 14.8828C15.288 14.8828 15.3876 14.863 15.4805 14.8245C15.5734 14.7861 15.6578 14.7297 15.7289 14.6586C15.8 14.5875 15.8564 14.5031 15.8948 14.4102C15.9333 14.3173 15.9531 14.2177 15.9531 14.1172C15.9531 14.0166 15.9333 13.9171 15.8948 13.8242C15.8564 13.7313 15.8 13.6469 15.7289 13.5758C15.6578 13.5047 15.5734 13.4483 15.4805 13.4098C15.3876 13.3714 15.288 13.3516 15.1875 13.3516C15.087 13.3516 14.9874 13.3714 14.8945 13.4098C14.8016 13.4483 14.7172 13.5047 14.6461 13.5758C14.575 13.6469 14.5186 13.7313 14.4802 13.8242C14.4417 13.9171 14.4219 14.0166 14.4219 14.1172ZM14.4219 18C14.4219 18.1005 14.4417 18.2001 14.4802 18.293C14.5186 18.3859 14.575 18.4703 14.6461 18.5414C14.7172 18.6125 14.8016 18.6689 14.8945 18.7073C14.9874 18.7458 15.087 18.7656 15.1875 18.7656C15.288 18.7656 15.3876 18.7458 15.4805 18.7073C15.5734 18.6689 15.6578 18.6125 15.7289 18.5414C15.8 18.4703 15.8564 18.3859 15.8948 18.293C15.9333 18.2001 15.9531 18.1005 15.9531 18C15.9531 17.8995 15.9333 17.7999 15.8948 17.707C15.8564 17.6141 15.8 17.5297 15.7289 17.4586C15.6578 17.3875 15.5734 17.3311 15.4805 17.2927C15.3876 17.2542 15.288 17.2344 15.1875 17.2344C15.087 17.2344 14.9874 17.2542 14.8945 17.2927C14.8016 17.3311 14.7172 17.3875 14.6461 17.4586C14.575 17.5297 14.5186 17.6141 14.4802 17.707C14.4417 17.7999 14.4219 17.8995 14.4219 18ZM14.4219 21.8828C14.4219 21.9834 14.4417 22.0829 14.4802 22.1758C14.5186 22.2687 14.575 22.3531 14.6461 22.4242C14.7172 22.4953 14.8016 22.5517 14.8945 22.5902C14.9874 22.6286 15.087 22.6484 15.1875 22.6484C15.288 22.6484 15.3876 22.6286 15.4805 22.5902C15.5734 22.5517 15.6578 22.4953 15.7289 22.4242C15.8 22.3531 15.8564 22.2687 15.8948 22.1758C15.9333 22.0829 15.9531 21.9834 15.9531 21.8828C15.9531 21.7823 15.9333 21.6827 15.8948 21.5898C15.8564 21.4969 15.8 21.4125 15.7289 21.3414C15.6578 21.2703 15.5734 21.2139 15.4805 21.1755C15.3876 21.137 15.288 21.1172 15.1875 21.1172C15.087 21.1172 14.9874 21.137 14.8945 21.1755C14.8016 21.2139 14.7172 21.2703 14.6461 21.3414C14.575 21.4125 14.5186 21.4969 14.4802 21.5898C14.4417 21.6827 14.4219 21.7823 14.4219 21.8828Z" fill="white"/>
</svg>