<svg width="40" height="40" viewBox="0 0 40 40" fill="none" xmlns="http://www.w3.org/2000/svg">
<path d="M33.3334 6.66675H6.66671C4.82837 6.66675 3.33337 8.16175 3.33337 10.0001V30.0001C3.33337 31.8384 4.82837 33.3334 6.66671 33.3334H33.3334C35.1717 33.3334 36.6667 31.8384 36.6667 30.0001V10.0001C36.6667 8.16175 35.1717 6.66675 33.3334 6.66675ZM33.3334 10.0001V10.8517L20 21.2234L6.66671 10.8534V10.0001H33.3334ZM6.66671 30.0001V15.0734L18.9767 24.6484C19.2686 24.8777 19.6289 25.0023 20 25.0023C20.3712 25.0023 20.7315 24.8777 21.0234 24.6484L33.3334 15.0734L33.3367 30.0001H6.66671Z" fill="white"/>
</svg>
