<svg width="111" height="75" viewBox="0 0 111 75" fill="none" xmlns="http://www.w3.org/2000/svg">
<g clip-path="url(#clip0_111_1571)">
<path d="M32.737 49.4908L36.0809 60.3405C36.8322 62.8039 37.1455 64.5235 37.02 65.5036C38.8488 60.6056 40.1266 55.268 40.8536 49.4908H44.8744C43.1455 58.8961 40.8652 65.7308 38.0348 69.9944C35.8295 73.28 33.4136 74.9227 30.7828 74.9227C30.0813 74.9227 29.2166 74.7108 28.1904 74.29V72.0228C28.6918 72.0963 29.28 72.1357 29.9565 72.1357C31.1838 72.1357 32.1729 71.7955 32.9255 71.1166C33.8266 70.2895 34.2777 69.3598 34.2777 68.3294C34.2777 67.6258 33.9259 66.1819 33.2255 63.9976L28.5665 49.4908H32.7368H32.737ZM7.14529 42.8223L13.2699 61.5091H13.3078L19.47 42.8223H24.5047C25.6071 52.0896 26.2583 60.5689 26.4581 68.2548H22.2134C22.0641 61.07 21.6504 54.314 20.9739 47.9854H20.9369L14.4732 68.2548H11.2406L4.81599 47.9854H4.77817C4.30152 54.0632 4.00152 60.8193 3.87645 68.2548H0.00567627C0.25582 59.2118 0.881822 50.7351 1.88368 42.8223H7.1455H7.14529Z" fill="#00758F"/>
<path d="M75.7574 42.4448C82.3456 42.4448 85.6398 46.6538 85.6398 55.0678C85.6398 59.64 84.6491 63.0936 82.6696 65.4268C82.3129 65.8532 81.9186 66.2215 81.5034 66.5628L86.1656 68.868L86.1611 68.8678L84.5058 71.7264L78.4342 68.1838C77.4278 68.4818 76.3204 68.6308 75.1138 68.6308C71.8789 68.6308 69.4626 67.688 67.865 65.8048C66.1114 63.7216 65.235 60.442 65.235 55.9717C65.235 51.4252 66.224 47.9847 68.2041 45.6485C70.0075 43.5116 72.5257 42.4446 75.7574 42.4446V42.4448ZM55.5826 42.4818C57.9373 42.4818 60.0783 43.1118 62.0068 44.3675L61.0273 46.5502C59.3771 45.8488 57.7501 45.4966 56.1457 45.4966C54.8438 45.4966 53.8406 45.8099 53.1414 46.4404C52.4382 47.0654 52.0032 47.8695 52.0032 48.8499C52.0032 50.3563 53.0765 51.6627 55.058 52.7664C55.7072 53.1213 56.3542 53.4802 56.9988 53.8433L57.1467 53.9265L57.2208 53.9681L57.3689 54.0513L57.4428 54.093L57.5906 54.1764C59.0906 55.022 60.5021 55.8292 60.5021 55.8292C62.4835 57.2357 63.4712 58.7353 63.4712 61.2051C63.4712 63.3621 62.6808 65.1326 61.1051 66.5181C59.5284 67.8973 57.4101 68.5888 54.7574 68.5888C52.2764 68.5888 49.8719 67.7929 47.5428 66.2142L48.6323 64.0295C50.6367 65.0342 52.4505 65.536 54.0792 65.536C55.6067 65.536 56.8024 65.1949 57.6674 64.5214C58.5306 63.843 59.0479 62.8968 59.0479 61.697C59.0479 60.1869 57.9974 58.896 56.0704 57.8131C55.4673 57.4799 54.8659 57.1434 54.2664 56.8037L54.1187 56.7201C53.8475 56.5669 53.5744 56.4118 53.3068 56.2598L53.1618 56.1773C51.8606 55.4372 50.7356 54.7906 50.7356 54.7906C48.8092 53.3815 47.8432 51.8696 47.8432 49.3785C47.8432 47.3183 48.5636 45.653 50.0021 44.3862C51.4441 43.1166 53.3045 42.4818 55.5826 42.4818ZM93.3824 42.8222V65.1262H101.385V68.2547H89.3238V42.8222H93.3824ZM105.832 65.1358V65.6645H104.952V68.2519H104.279V65.6645H103.365V65.1358H105.832H105.832ZM107.456 65.1358L108.301 67.2599L109.077 65.1358H110.03V68.2519H109.397V65.8805L108.513 68.2519H108.056L107.171 65.8805H107.137V68.2519H106.538V65.1358H107.456H107.456ZM75.3431 45.5724C71.4607 45.5724 69.5184 48.7766 69.5184 55.1806C69.5184 58.8489 70.0331 61.509 71.0606 63.1669C72.0121 64.7013 73.5025 65.467 75.5318 65.467C79.4141 65.467 81.3562 62.2379 81.3562 55.7828C81.3562 52.1658 80.8415 49.5285 79.8154 47.8697C78.8627 46.3388 77.373 45.5724 75.3433 45.5724H75.3431Z" fill="#F29111"/>
<path d="M65.1671 1.57587C66.455 -1.58874 70.9583 0.807823 72.7058 1.91327C73.1341 2.18984 73.6254 2.77415 74.1164 2.99013C74.8825 3.02022 75.648 3.08017 76.4154 3.11219C77.8548 3.45044 79.2031 3.72681 80.3373 4.37279C85.6084 7.47702 89.0397 10.6403 92.1977 15.8654C92.8724 16.9721 93.2096 18.1698 93.7608 19.3674C94.5259 21.1526 95.3855 23.0265 96.2734 24.7146C96.671 25.5148 96.9785 26.4047 97.5306 27.0806C97.7462 27.3896 98.3584 27.4807 98.7244 27.6653C99.7361 28.1891 100.962 28.5866 101.913 29.2012C103.69 30.3093 105.409 31.6296 106.971 32.9813C107.553 33.5031 107.949 34.2417 108.504 34.7936V35.0721C108.012 35.2232 107.521 35.3779 107.03 35.5019C105.957 35.7774 105.007 35.7151 103.967 35.9908C103.324 36.1773 102.526 36.4234 101.851 36.4859L101.913 36.5487C102.31 37.6823 104.457 38.6042 105.438 39.2822C106.631 40.1426 107.735 41.1862 108.625 42.3847C108.932 42.6905 109.239 42.9688 109.544 43.2737C109.758 43.5828 109.818 43.9825 110.034 44.258V44.3512C109.795 44.2668 109.623 44.1056 109.46 43.9371L109.362 43.8355C109.265 43.7345 109.167 43.6352 109.055 43.5533C108.378 43.0913 107.707 42.5386 107.03 42.109C105.867 41.371 104.518 40.9427 103.324 40.202C102.649 39.7719 102.005 39.2822 101.361 38.7901C100.778 38.3588 100.135 37.5305 99.7688 36.9159C99.5528 36.5764 99.5232 36.1773 99.2765 35.9317C99.3205 35.5214 99.6964 35.3996 100.076 35.2994L100.163 35.2764C100.294 35.2425 100.422 35.2085 100.534 35.1636C102.127 34.4871 104.026 34.2417 106.479 34.3032C106.387 33.6873 104.854 32.9199 104.365 32.5511C103.383 31.8432 102.343 31.1046 101.301 30.4603C100.749 30.1229 99.7976 29.8767 99.186 29.6009C98.3584 29.2627 96.5191 28.9247 96.0605 28.2804C95.2815 27.2648 94.7219 26.0534 94.1786 24.8297L94.0308 24.4958C93.9814 24.3845 93.932 24.2732 93.8825 24.162C93.2403 22.6885 92.4426 21.1522 91.799 19.6434C91.4625 18.9073 91.308 18.2613 90.9394 17.5554C88.703 13.2234 85.3929 9.59658 81.3796 7.04593C80.0608 6.21599 78.5902 5.44794 76.9669 4.92595C76.0469 4.64808 74.9427 4.80173 73.9626 4.58855H73.3174C72.7669 4.4334 72.3072 3.84973 71.8776 3.54199C70.9288 2.89772 69.9785 2.46513 68.8439 2.00546C68.4463 1.82107 67.311 1.39171 66.9147 1.72974C66.6693 1.79142 66.5449 1.88404 66.4845 2.13032C66.2403 2.49779 66.455 3.05138 66.607 3.39027C67.0673 4.37236 67.7103 4.95603 68.2939 5.78597C68.8131 6.52201 69.458 7.35195 69.8262 8.15224C70.6204 9.87251 70.9903 11.7785 71.7263 13.4985C71.9992 14.1454 72.431 14.8814 72.8283 15.4648C73.1651 15.928 73.7773 16.2628 73.9626 16.849C74.3318 17.4636 73.4098 19.4916 73.1964 20.1357C72.3981 22.6558 72.5528 26.1589 73.4722 28.3434L73.5212 28.4585L73.5702 28.5752C73.9058 29.3753 74.2651 30.2368 75.1576 30.4605C75.2191 30.3995 75.1576 30.4315 75.2795 30.3995C75.4954 28.7087 75.5562 27.0804 76.1391 25.7575C76.4758 24.9303 77.1482 24.3456 77.6092 23.6704C77.9165 23.8543 77.9165 24.409 78.0996 24.776C78.4984 25.728 78.9267 26.7718 79.4184 27.7266C80.4276 29.6929 81.5631 31.5993 82.8497 33.3194C83.2806 33.9338 83.892 34.61 84.4434 35.1634C84.6891 35.3777 84.9641 35.5014 85.1487 35.7772H85.2089V35.87C84.2896 35.5311 83.7068 34.58 82.9735 34.0247C81.593 32.9809 79.9398 31.4134 78.9882 29.9093C78.5902 29.0459 78.16 28.2183 77.731 27.3591V27.297C77.5477 27.5424 77.6092 27.7861 77.5174 28.1575C77.1194 29.6929 77.4259 31.4446 76.0469 31.9969C74.4837 32.6437 73.3176 30.9531 72.8283 30.1848C71.2647 27.6348 70.8364 23.333 71.9391 19.8604C72.184 19.0917 72.2174 18.1698 72.645 17.556C72.5526 17.0012 72.1249 16.8494 71.8776 16.5095C71.4487 15.9284 71.0814 15.2514 70.7455 14.6061C70.1004 13.3455 69.6414 11.8393 69.1516 10.4873C68.9363 9.93526 68.8746 9.38103 68.6599 8.8584C68.2937 8.06069 67.6187 7.2604 67.098 6.55467C66.3929 5.54034 64.3393 3.57444 65.1671 1.57587ZM75.2184 7.59629C75.3003 7.67838 75.3992 7.75016 75.5015 7.82086L75.6248 7.90553C75.7892 8.01943 75.9484 8.13934 76.046 8.30266C76.2007 8.51885 76.2295 8.73225 76.4148 8.94887C76.4148 9.68748 76.2007 10.1785 75.7686 10.4845C75.7686 10.4845 75.7391 10.5168 75.7088 10.5469C75.4638 10.0545 75.2492 9.56477 75.0025 9.07287C74.6986 8.6435 74.269 8.30288 74.0214 7.81226H73.9619V7.75059C74.3318 7.65926 74.6986 7.59629 75.2184 7.59629Z" fill="#00758F"/>
</g>
<defs>
<clipPath id="clip0_111_1571">
<rect width="110.04" height="75" fill="white"/>
</clipPath>
</defs>
</svg>
