<svg width="75" height="75" viewBox="0 0 75 75" fill="none" xmlns="http://www.w3.org/2000/svg">
<path d="M17.8125 32.3227C18.5352 32.2318 19.2687 32.2851 19.9707 32.4794C20.6727 32.6737 21.3292 33.0052 21.9023 33.4547C22.2721 34.0243 22.5079 34.6704 22.592 35.3443C22.676 36.0182 22.6061 36.7024 22.3875 37.3454C22.1957 38.9282 21.4302 40.3859 20.2359 41.4422C18.7957 42.37 17.0932 42.8051 15.3844 42.6821H12.1031L14.1188 32.3438L17.8125 32.3227ZM4.6875 53.1493H10.0781L11.3555 46.5868H15.9656C17.664 46.63 19.359 46.411 20.9906 45.9375C22.3307 45.4951 23.5556 44.7602 24.5766 43.786C26.3423 42.1982 27.5324 40.0701 27.9609 37.7344C28.2992 36.5719 28.3587 35.346 28.1347 34.1562C27.9108 32.9663 27.4096 31.846 26.6719 30.886C25.7824 30.0046 24.7113 29.3279 23.5333 28.9032C22.3553 28.4786 21.0988 28.3162 19.8516 28.4274H9.50859L4.6875 53.1493ZM31.9148 21.8508H37.2656L35.9695 28.4133H40.7297C42.9166 28.1843 45.1138 28.7401 46.9289 29.9813C47.5295 30.664 47.94 31.4926 48.1194 32.384C48.2987 33.2754 48.2406 34.1983 47.9508 35.0602L45.7148 46.5657H40.3008L42.4289 35.6274C42.577 35.2101 42.6298 34.7649 42.5836 34.3245C42.5374 33.8841 42.3932 33.4596 42.1617 33.0821C41.3859 32.5254 40.427 32.2857 39.4805 32.4118H35.2078L32.4539 46.5774H27.0914L31.9148 21.8508ZM59.857 32.3227C60.5797 32.2318 61.3133 32.2851 62.0153 32.4794C62.7172 32.6737 63.3738 33.0052 63.9469 33.4547C64.3167 34.0243 64.5525 34.6704 64.6365 35.3443C64.7205 36.0182 64.6506 36.7024 64.432 37.3454C64.2403 38.9282 63.4748 40.3859 62.2805 41.4422C60.8376 42.372 59.1315 42.8071 57.4195 42.6821H54.1406L56.1516 32.3321L59.857 32.3227ZM46.732 53.1493H52.1227L53.4 46.5868H58.0125C59.7141 46.631 61.4122 46.412 63.0469 45.9375C64.3869 45.4951 65.6118 44.7602 66.6328 43.786C68.3943 42.1964 69.5801 40.0686 70.0055 37.7344C70.3437 36.5719 70.4032 35.346 70.1793 34.1562C69.9553 32.9663 69.4541 31.846 68.7164 30.886C67.8266 30.0061 66.7556 29.331 65.5781 28.9075C64.4005 28.4841 63.1448 28.3227 61.8984 28.4344H51.5391L46.732 53.1493Z" fill="#8993BE"/>
</svg>
