<svg width="75" height="75" viewBox="0 0 75 75" fill="none" xmlns="http://www.w3.org/2000/svg">
<g clip-path="url(#clip0_111_1575)">
<path d="M74.6933 42.2616C77.318 21.7154 62.8078 2.93115 42.2991 0.306738C21.7904 -2.31797 2.93115 12.1922 0.306738 32.7009C-2.31797 53.2096 12.1922 72.0313 32.7009 74.6933C53.2471 77.318 72.0313 62.8078 74.6933 42.2616Z" fill="#FF6C37"/>
<path d="M51.0351 24.0773L35.2128 39.8997L30.7509 35.4377C46.3107 19.8782 47.8479 21.2279 51.0348 24.0773H51.0351Z" fill="white"/>
<path d="M35.2128 40.2744C35.1003 40.2744 35.0253 40.2369 34.9503 40.1619L30.4512 35.7003C30.4157 35.6665 30.3874 35.6258 30.3681 35.5807C30.3488 35.5356 30.3388 35.487 30.3388 35.438C30.3388 35.3889 30.3488 35.3404 30.3681 35.2953C30.3874 35.2502 30.4157 35.2095 30.4512 35.1756C46.2733 19.3532 47.923 20.853 51.2599 23.8524C51.3349 23.9274 51.3724 24.0024 51.3724 24.1149C51.3724 24.2274 51.3349 24.3024 51.2599 24.3774L35.4378 40.1619C35.4003 40.2369 35.2878 40.2744 35.2128 40.2744ZM31.2762 35.4378L35.2128 39.3747L50.4727 24.1149C47.6983 21.6405 45.8233 20.8905 31.2762 35.4381V35.4378Z" fill="#FF6C37"/>
<path d="M39.7494 44.4363L35.4378 40.1244L51.2599 24.3024C55.4968 28.5768 49.1605 35.5128 39.7494 44.4363Z" fill="white"/>
<path d="M39.7494 44.8113C39.6369 44.8113 39.5619 44.7738 39.4872 44.6988L35.1753 40.3869C35.1003 40.3119 35.1003 40.2369 35.1003 40.1244C35.1003 40.0121 35.1378 39.9369 35.2128 39.8622L51.0351 24.0398C51.069 24.0042 51.1097 23.9759 51.1548 23.9566C51.2 23.9372 51.2485 23.9272 51.2976 23.9272C51.3467 23.9272 51.3953 23.9372 51.4404 23.9566C51.4856 23.9759 51.5263 24.0042 51.5601 24.0398C52.0388 24.4828 52.4171 25.0232 52.6693 25.6247C52.9215 26.2262 53.0419 26.8748 53.0224 27.5267C52.9473 31.6886 48.2235 36.9749 40.0497 44.6988C39.9372 44.7738 39.8247 44.8113 39.7497 44.8113H39.7494ZM35.9628 40.1244C38.3622 42.5616 39.3747 43.5363 39.7494 43.9113C46.0482 37.9124 52.1596 31.7636 52.1974 27.5267C52.2349 26.552 51.8599 25.577 51.2224 24.8273L35.9628 40.1244Z" fill="#FF6C37"/>
<path d="M30.8262 35.5503L34.0131 38.7372C34.0881 38.8122 34.0881 38.8872 34.0131 38.9622C33.9756 38.9997 33.9756 38.9997 33.9381 38.9997L27.3393 40.4244C27.0018 40.4619 26.7018 40.2369 26.6268 39.8997C26.5893 39.7122 26.6643 39.5247 26.7768 39.4122L30.6012 35.5878C30.6762 35.5128 30.7887 35.4753 30.8262 35.5503Z" fill="white"/>
<path d="M27.2268 40.7994C26.6643 40.7994 26.2521 40.3494 26.2521 39.7872C26.2521 39.5247 26.3646 39.2622 26.5521 39.0747L30.3762 35.2502C30.6012 35.0627 30.9012 35.0627 31.1262 35.2502L34.3131 38.4372C34.5381 38.6247 34.5381 38.9622 34.3131 39.1872C34.2381 39.2622 34.1631 39.2997 34.0506 39.3372L27.4518 40.7619C27.3768 40.7619 27.3018 40.7994 27.2268 40.7994ZM30.7137 35.9627L27.0393 39.6372C26.9643 39.7122 26.9268 39.8247 27.0018 39.9372C27.0393 40.0497 27.1518 40.0869 27.2643 40.0497L33.4506 38.6997L30.7137 35.9627Z" fill="#FF6C37"/>
<path d="M59.3959 15.304C56.9965 12.9793 53.1346 13.0543 50.8101 15.4915C48.4854 17.9285 48.5604 21.7529 50.9976 24.0773C51.9596 25.0067 53.202 25.5917 54.5313 25.741C55.8605 25.8902 57.2018 25.5953 58.3459 24.9023L54.0715 20.6279L59.3956 15.304H59.3959Z" fill="white"/>
<path d="M55.1968 26.1396C51.6348 26.1396 48.7479 23.2527 48.7479 19.6908C48.7479 16.1289 51.6348 13.2419 55.1968 13.2419C56.8462 13.2419 58.4587 13.8794 59.6587 15.0416C59.7334 15.1166 59.7709 15.1916 59.7709 15.3041C59.7709 15.4166 59.7334 15.4916 59.6584 15.5666L54.5967 20.628L58.5712 24.6024C58.7212 24.7524 58.7212 24.9774 58.5712 25.1274L58.4962 25.2024C57.5212 25.8021 56.359 26.1399 55.1968 26.1399V26.1396ZM55.1968 14.0294C52.0473 14.0294 49.4976 16.5789 49.5351 19.7283C49.5351 22.8777 52.0848 25.4274 55.2343 25.3899C56.0965 25.3899 56.959 25.2024 57.7462 24.7899L53.8095 20.8905C53.7345 20.8155 53.697 20.7405 53.697 20.628C53.697 20.5158 53.7345 20.4405 53.8095 20.3658L58.8337 15.3414C57.8212 14.4792 56.5465 14.0294 55.1968 14.0294Z" fill="#FF6C37"/>
<path d="M59.5084 15.4166L59.4334 15.3416L54.0721 20.6279L58.3087 24.8648C58.7212 24.6023 59.1334 24.3023 59.4709 23.9648C60.0389 23.4084 60.4909 22.7448 60.8006 22.0125C61.1103 21.2801 61.2716 20.4936 61.275 19.6985C61.2785 18.9034 61.1242 18.1155 60.8209 17.3805C60.5177 16.6454 60.0715 15.9779 59.5084 15.4166Z" fill="white"/>
<path d="M58.3462 25.2774C58.2337 25.2774 58.1587 25.2399 58.0837 25.1649L53.8093 20.8904C53.7346 20.8154 53.6971 20.7404 53.6971 20.6279C53.6971 20.5157 53.7346 20.4404 53.8096 20.3657L59.1334 15.0416C59.1673 15.0061 59.208 14.9777 59.2531 14.9584C59.2982 14.9391 59.3468 14.9291 59.3959 14.9291C59.445 14.9291 59.4936 14.9391 59.5387 14.9584C59.5838 14.9777 59.6246 15.0061 59.6584 15.0416L59.7709 15.1166C62.2831 17.6285 62.2831 21.6779 59.8084 24.2274C59.4334 24.6024 59.0212 24.9399 58.5712 25.2024C58.4587 25.2399 58.3837 25.2774 58.3462 25.2774ZM54.5968 20.6279L58.3837 24.4149C58.6837 24.2274 58.9837 23.9649 59.2084 23.7402C61.3456 21.6029 61.4581 18.116 59.3959 15.8663L54.5971 20.6279H54.5968Z" fill="#FF6C37"/>
<path d="M51.6723 24.7523C51.2396 24.3202 50.653 24.0775 50.0414 24.0775C49.4298 24.0775 48.8432 24.3202 48.4104 24.7523L34.2756 38.8872L36.6375 41.2494L51.5973 28.1268C52.5723 27.3018 52.6471 25.8396 51.8223 24.8648C51.7473 24.8273 51.7098 24.7898 51.6723 24.7523Z" fill="white"/>
<path d="M36.6 41.6244C36.4875 41.6244 36.4125 41.5869 36.3375 41.5119L33.9756 39.1497C33.94 39.1159 33.9117 39.0752 33.8924 39.03C33.873 38.9849 33.863 38.9363 33.863 38.8872C33.863 38.8381 33.873 38.7895 33.8924 38.7444C33.9117 38.6993 33.94 38.6586 33.9756 38.6247L48.1104 24.4899C48.3586 24.2403 48.6536 24.0423 48.9786 23.9072C49.3035 23.7721 49.652 23.7025 50.0039 23.7025C50.3558 23.7025 50.7043 23.7721 51.0292 23.9072C51.3542 24.0423 51.6492 24.2403 51.8974 24.4899C52.1469 24.738 52.3449 25.0331 52.48 25.358C52.6152 25.683 52.6847 26.0314 52.6847 26.3833C52.6847 26.7352 52.6152 27.0837 52.48 27.4086C52.3449 27.7336 52.1469 28.0286 51.8974 28.2768L51.7849 28.3893L36.825 41.5119C36.7875 41.5869 36.7125 41.6244 36.6 41.6244ZM34.8003 38.8872L36.6375 40.7244L51.3349 27.8268C52.1599 27.1518 52.2349 25.9146 51.5599 25.0899C50.8852 24.2649 49.6477 24.1899 48.8229 24.8649C48.7854 24.9024 48.7479 24.9399 48.6729 24.9774L34.8003 38.8875V38.8872Z" fill="#FF6C37"/>
<path d="M23.4399 54.9718C23.2902 55.0468 23.2152 55.1968 23.2524 55.3468L23.8899 58.0462C24.0399 58.4212 23.8149 58.8712 23.4024 58.9837C23.1027 59.0962 22.7652 58.9837 22.5777 58.7587L18.4532 54.6718L31.9134 41.2119L36.5628 41.2869L39.7122 44.4363C38.9622 45.0735 34.4256 49.4604 23.4399 54.9718Z" fill="white"/>
<path d="M23.1401 59.3584C22.8401 59.3584 22.5401 59.2462 22.3526 59.0212L18.2657 54.9343C18.191 54.8593 18.1535 54.7843 18.1535 54.6721C18.1535 54.5596 18.191 54.4846 18.266 54.4096L31.7259 40.9494C31.8009 40.8744 31.9134 40.8369 31.9884 40.8369L36.6378 40.9119C36.75 40.9119 36.8253 40.9494 36.9 41.0244L40.0494 44.1738C40.1244 44.2488 40.1619 44.3613 40.1619 44.4738C40.1619 44.5863 40.1244 44.6613 40.0119 44.7363L39.7494 44.961C35.7753 48.4479 30.3762 51.9349 23.6648 55.2718L24.3023 57.934C24.4148 58.4212 24.1898 58.9462 23.7398 59.2084C23.5148 59.3212 23.3273 59.3587 23.1401 59.3587V59.3584ZM19.0157 54.6721L22.8776 58.4962C22.9901 58.6837 23.2151 58.7587 23.4023 58.6462C23.5898 58.5337 23.6648 58.3087 23.5523 58.1212L22.9151 55.4218C22.8401 55.0843 22.9901 54.7843 23.2901 54.6346C29.9262 51.2977 35.2878 47.8482 39.2247 44.4363L36.4503 41.6619L32.1384 41.5869L19.0157 54.6721Z" fill="#FF6C37"/>
<path d="M15.2666 57.8965L18.4907 54.6721L23.2902 59.4709L15.6413 58.9462C15.3038 58.9087 15.0788 58.6087 15.1166 58.2712C15.1166 58.1212 15.1541 57.9712 15.2663 57.8962L15.2666 57.8965Z" fill="white"/>
<path d="M23.2901 59.8084L15.6038 59.2837C15.0413 59.2462 14.6663 58.7587 14.7041 58.1962C14.7416 57.9712 14.8166 57.7465 15.0041 57.5965L18.2285 54.3721C18.2624 54.3366 18.3031 54.3083 18.3482 54.289C18.3933 54.2697 18.4418 54.2597 18.4909 54.2597C18.5399 54.2597 18.5885 54.2697 18.6336 54.289C18.6787 54.3083 18.7194 54.3366 18.7532 54.3721L23.5523 59.1709C23.6648 59.2837 23.7023 59.4337 23.6273 59.5834C23.5523 59.7334 23.4398 59.8084 23.2901 59.8084ZM18.4907 55.1971L15.5288 58.159C15.4163 58.2337 15.4163 58.4212 15.5288 58.4962C15.5663 58.5337 15.6038 58.5712 15.6788 58.5712L22.3151 59.0212L18.4907 55.1968V55.1971ZM30.6012 42.9366C30.3762 42.9366 30.2262 42.7491 30.2262 42.5616C30.2262 42.4491 30.2637 42.3741 30.3387 42.2991L33.9756 38.6622C34.0094 38.6267 34.0501 38.5983 34.0953 38.579C34.1404 38.5597 34.189 38.5497 34.2381 38.5497C34.2872 38.5497 34.3358 38.5597 34.3809 38.579C34.426 38.5983 34.4667 38.6267 34.5006 38.6622L36.8625 41.0244C36.975 41.1369 37.0125 41.2494 36.975 41.3994C36.9375 41.5119 36.825 41.6244 36.675 41.6619L30.6762 42.9363H30.6012V42.9366ZM34.2381 39.4497L31.7634 41.9241L35.8128 41.0619L34.2381 39.4497Z" fill="#FF6C37"/>
<path d="M36.5625 41.2869L32.4384 42.1866C32.1384 42.2616 31.8384 42.0741 31.7634 41.7741C31.7259 41.5866 31.7634 41.3991 31.9134 41.2494L34.2006 38.9622L36.5625 41.2869Z" fill="white"/>
<path d="M32.3634 42.5616C32.2399 42.5628 32.1175 42.5395 32.0031 42.4928C31.8888 42.4461 31.785 42.3771 31.6977 42.2898C31.6104 42.2025 31.5414 42.0986 31.4947 41.9843C31.448 41.87 31.4246 41.7476 31.4259 41.6241C31.4259 41.3619 31.5384 41.1369 31.6884 40.9494L33.9756 38.6622C34.0094 38.6266 34.0502 38.5983 34.0953 38.579C34.1404 38.5596 34.189 38.5496 34.2381 38.5496C34.2872 38.5496 34.3358 38.5596 34.3809 38.579C34.426 38.5983 34.4667 38.6266 34.5006 38.6622L36.8625 41.0244C36.975 41.1369 37.0125 41.2494 36.975 41.3994C36.9375 41.5119 36.825 41.6244 36.675 41.6619L32.5509 42.5616H32.3634ZM34.2381 39.4497L32.2134 41.4741C32.1384 41.5494 32.1384 41.6244 32.1759 41.6991C32.2134 41.7741 32.2884 41.8116 32.4009 41.8116L35.8503 41.0616L34.2381 39.4497ZM59.5459 19.0157C59.4709 18.791 59.2084 18.6785 58.9834 18.7535C58.7587 18.8285 58.6462 19.0907 58.7212 19.316C58.7212 19.3532 58.7587 19.3907 58.7587 19.4282C58.9837 19.8782 58.9087 20.4407 58.6087 20.8529C58.4587 21.0404 58.4962 21.3029 58.6462 21.4529C58.8337 21.6029 59.0959 21.5654 59.2459 21.3779C59.8084 20.6654 59.9209 19.7657 59.5459 19.0157Z" fill="#FF6C37"/>
</g>
<defs>
<clipPath id="clip0_111_1575">
<rect width="75" height="75" fill="white"/>
</clipPath>
</defs>
</svg>
