<svg width="75" height="75" viewBox="0 0 75 75" fill="none" xmlns="http://www.w3.org/2000/svg">
<path d="M37.5 43.2985C40.736 43.2985 43.3594 40.6751 43.3594 37.4391C43.3594 34.203 40.736 31.5797 37.5 31.5797C34.264 31.5797 31.6406 34.203 31.6406 37.4391C31.6406 40.6751 34.264 43.2985 37.5 43.2985Z" fill="#00D8FF"/>
<path d="M37.5 50.8735C30.4573 51.0438 23.4323 50.0945 16.6875 48.061C13.5718 47.0733 10.6658 45.5174 8.11641 43.4719C7.14359 42.7731 6.33345 41.8722 5.74158 40.8309C5.14972 39.7895 4.79013 38.6325 4.6875 37.4391C4.6875 33.5649 8.94375 29.768 16.0734 27.2836C22.9986 25.0823 30.2342 24.0154 37.5 24.1243C44.6688 24.0241 51.8075 25.0717 58.6453 27.2274C61.646 28.184 64.4534 29.6647 66.9375 31.6008C67.8937 32.267 68.6917 33.1353 69.2749 34.1443C69.8582 35.1532 70.2124 36.278 70.3125 37.4391C70.3125 41.4657 65.5547 45.5461 57.8906 48.0821C51.2764 50.0494 44.3996 50.9908 37.5 50.8735ZM37.5 26.9274C30.5487 26.8345 23.6269 27.8487 16.9945 29.9321C10.432 32.2219 7.49063 35.3532 7.49063 37.4321C7.49063 39.6071 10.6523 43.0266 17.5945 45.4008C24.047 47.3364 30.7655 48.2374 37.5 48.0704C44.1009 48.1884 50.6811 47.2952 57.0117 45.4219C64.2188 43.0336 67.5 39.6094 67.5 37.4391C67.3817 36.6943 67.1103 35.9822 66.7029 35.3476C66.2954 34.713 65.7608 34.1699 65.1328 33.7524C62.9104 32.0348 60.4024 30.7225 57.7242 29.8758C51.1829 27.8221 44.3554 26.8268 37.5 26.9274Z" fill="#00D8FF"/>
<path d="M24.1874 66.6633C23.0941 66.6884 22.0136 66.4231 21.0562 65.8945C17.6999 63.9586 16.5374 58.3758 17.946 50.9578C19.4991 43.8588 22.1901 37.0577 25.9148 30.818C29.4087 24.5581 33.8816 18.8975 39.164 14.0508C41.4917 11.929 44.177 10.2364 47.0953 9.05158C48.1508 8.5569 49.3022 8.30048 50.4679 8.30048C51.6336 8.30048 52.785 8.5569 53.8406 9.05158C57.3304 11.0625 58.4859 17.2219 56.857 25.1274C55.2559 31.8412 52.6348 38.2698 49.0851 44.1891C45.7142 50.3751 41.3821 55.9864 36.2507 60.8133C33.8385 63.0183 31.039 64.7577 27.9937 65.9438C26.7745 66.3963 25.4877 66.6395 24.1874 66.6633ZM28.3429 32.2102C24.79 38.1852 22.2109 44.6876 20.7023 51.4734C19.4062 58.3055 20.6507 62.4141 22.4601 63.4594C24.3351 64.5445 28.8867 63.5156 34.4132 58.6875C39.3117 54.0632 43.4466 48.6919 46.664 42.7735C50.0646 37.1145 52.5789 30.9683 54.1195 24.5485C55.6523 17.107 54.3281 12.5508 52.4484 11.468C51.7439 11.198 50.991 11.0772 50.2374 11.1131C49.4838 11.149 48.7459 11.3409 48.0703 11.6766C45.4726 12.7485 43.0845 14.2702 41.0156 16.1719C35.9687 20.8144 31.6961 26.2335 28.3593 32.2242L28.3429 32.2102Z" fill="#00D8FF"/>
<path d="M50.8055 66.6938C47.6297 66.6938 43.5961 64.7719 39.3961 61.1602C34.0212 56.2694 29.4726 50.5415 25.9266 44.1984C22.2486 38.0446 19.5789 31.3419 18.0188 24.3445C17.3421 21.266 17.2168 18.0919 17.6485 14.9695C17.7483 13.8113 18.1009 12.689 18.6817 11.6819C19.2624 10.6747 20.057 9.80727 21.0094 9.14064C24.4945 7.12267 30.4078 9.19689 36.443 14.5547C41.46 19.2942 45.7205 24.7751 49.0758 30.8063C52.7515 36.8164 55.4492 43.3723 57.068 50.2289C57.7737 53.4204 57.8826 56.715 57.3891 59.9461C57.2717 61.1377 56.8979 62.2898 56.2935 63.3234C55.6892 64.357 54.8684 65.2477 53.8875 65.9344C52.9457 66.4564 51.882 66.7185 50.8055 66.6938ZM28.3524 42.7875C31.7541 48.8495 36.0991 54.3313 41.2242 59.0274C46.4953 63.5625 50.6766 64.5375 52.4742 63.4805C54.3492 62.3906 55.732 57.9422 54.307 50.7445C52.7458 44.1983 50.1583 37.9404 46.6406 32.2031C43.4387 26.4308 39.3721 21.1825 34.582 16.6406C28.9008 11.5969 24.293 10.4695 22.4156 11.557C21.8305 12.0325 21.3503 12.6242 21.0054 13.2947C20.6605 13.9651 20.4584 14.6998 20.4117 15.4524C20.0391 18.2369 20.1605 21.0654 20.7703 23.8078C22.271 30.4996 24.8314 36.9085 28.3547 42.7922L28.3524 42.7875Z" fill="#00D8FF"/>
</svg>
