<svg width="75" height="75" viewBox="0 0 75 75" fill="none" xmlns="http://www.w3.org/2000/svg">
<g clip-path="url(#clip0_111_1536)">
<path d="M74.0407 33.4562L59.2594 7.8781C57.9782 5.65935 54.8313 3.83435 52.2594 3.83435H22.7282C20.1657 3.83435 17.0063 5.65935 15.7282 7.8781L0.956299 33.4562C-0.324951 35.675 -0.324951 39.3093 0.956299 41.5312L15.7219 67.1219C17.0032 69.3406 20.15 71.1656 22.7219 71.1656H52.2688C54.8313 71.1656 57.975 69.3406 59.2688 67.1219L74.0375 41.5281C75.3188 39.3093 75.3188 35.675 74.0375 33.4562H74.0407ZM34.3 17.9844C34.3 16.3062 35.6688 14.9375 37.3438 14.9375C39.0188 14.9375 40.3907 16.3062 40.3907 17.9844V36.175C40.3411 36.9485 39.9988 37.6741 39.4335 38.2044C38.8681 38.7347 38.1221 39.0298 37.3469 39.0298C36.5718 39.0298 35.8257 38.7347 35.2604 38.2044C34.695 37.6741 34.3528 36.9485 34.3032 36.175L34.3 17.9844ZM37.3438 56.8281C31.8691 56.8207 26.6209 54.6421 22.7503 50.7703C18.8797 46.8986 16.7027 41.6497 16.6969 36.175C16.7043 32.9549 17.4613 29.7807 18.9079 26.9038C20.3544 24.0269 22.4509 21.5263 25.0313 19.6C25.3171 19.3871 25.642 19.2327 25.9876 19.1458C26.3332 19.0588 26.6925 19.0409 27.045 19.0932C27.3975 19.1454 27.7362 19.2668 28.0417 19.4503C28.3471 19.6338 28.6134 19.8758 28.825 20.1625C29.0378 20.4478 29.1922 20.7722 29.2794 21.1172C29.3665 21.4622 29.3848 21.8211 29.3332 22.1732C29.2815 22.5253 29.1609 22.8637 28.9782 23.1691C28.7956 23.4746 28.5545 23.741 28.2688 23.9531C25.1382 26.4023 23.0886 29.9779 22.5572 33.9171C22.0258 37.8562 23.0547 41.8471 25.4244 45.0383C27.794 48.2295 31.3169 50.3685 35.2414 50.9988C39.1659 51.6292 43.1814 50.7011 46.4313 48.4125C48.3399 46.994 49.8899 45.1483 50.9573 43.0233C52.0247 40.8983 52.5798 38.553 52.5782 36.175C52.5719 33.7881 52.0074 31.4358 50.9298 29.3061C49.8521 27.1763 48.2913 25.3282 46.3719 23.9093C45.7943 23.4811 45.4098 22.8416 45.3027 22.1306C45.1955 21.4196 45.3743 20.6951 45.8 20.1156C46.2283 19.538 46.8678 19.1535 47.5788 19.0463C48.2898 18.9392 49.0143 19.118 49.5938 19.5437C52.1946 21.468 54.3086 23.9744 55.7667 26.8625C57.2248 29.7505 57.9865 32.9398 57.9907 36.175C57.9865 41.6504 55.8096 46.9004 51.9379 50.7722C48.0661 54.6439 42.8161 56.8208 37.3407 56.825L37.3438 56.8281Z" fill="#68BE43"/>
</g>
<defs>
<clipPath id="clip0_111_1536">
<rect width="75" height="75" fill="white"/>
</clipPath>
</defs>
</svg>
